/* XPM */
static char *Screenshot_from_2025_05_07_11_10_17_resized[] = {
/* columns rows colors chars-per-pixel */
"64 64 237 2 ",
"   c #14060A",
".  c #250424",
"X  c #2C042B",
"o  c #2E092F",
"O  c #330333",
"+  c #350935",
"@  c #3C053C",
"#  c #3D0E3C",
"$  c #3D103C",
"%  c #372B33",
"&  c #562916",
"*  c #6A3719",
"=  c #40083F",
"-  c #41123F",
";  c #4C3538",
":  c #76432C",
">  c #430543",
",  c #450B44",
"<  c #4A094A",
"1  c #4C0C4C",
"2  c #451344",
"3  c #481347",
"4  c #471B47",
"5  c #4C134B",
"6  c #4C1A4B",
"7  c #50164F",
"8  c #4E0F50",
"9  c #550B56",
"0  c #531453",
"q  c #541A54",
"w  c #581957",
"e  c #5A145B",
"r  c #5B1B5B",
"t  c #4E2B4C",
"y  c #542354",
"u  c #5C245C",
"i  c #582959",
"p  c #59345C",
"a  c #6F334E",
"s  c #60265C",
"d  c #5F1E60",
"f  c #621463",
"g  c #631C64",
"h  c #671E68",
"j  c #691C6A",
"k  c #6F1E71",
"l  c #711D73",
"z  c #5B2761",
"x  c #5A3A6F",
"c  c #642464",
"v  c #682567",
"b  c #652B65",
"n  c #6C246C",
"m  c #6B2B6B",
"M  c #702B6F",
"N  c #653666",
"B  c #6D326D",
"V  c #70336F",
"C  c #6F2270",
"Z  c #6F2C70",
"A  c #732675",
"S  c #732C73",
"D  c #7B2B7C",
"F  c #6A3A72",
"G  c #733473",
"H  c #753B75",
"J  c #7B337B",
"K  c #763B79",
"L  c #7B3C7B",
"P  c #554A70",
"I  c #6B436C",
"U  c #665E67",
"Y  c #674676",
"T  c #77477B",
"R  c #7C427C",
"E  c #6D5E7F",
"W  c #9C4E1A",
"Q  c #844F2F",
"!  c #C37236",
"~  c #8B5673",
"^  c #827275",
"/  c #A36A60",
"(  c #C47B51",
")  c #CC8956",
"_  c #CB896A",
"`  c #CB937A",
"'  c #DB9B76",
"]  c #793280",
"[  c #7C3981",
"{  c #794983",
"}  c #685683",
"|  c #76538B",
" . c #775589",
".. c #74648D",
"X. c #6C6C98",
"o. c #7A699B",
"O. c #78759B",
"+. c #7C75A2",
"@. c #822D84",
"#. c #862989",
"$. c #833285",
"%. c #823A83",
"&. c #863388",
"*. c #8A348C",
"=. c #873A89",
"-. c #8B3A8E",
";. c #8F2E92",
":. c #8E3890",
">. c #923C95",
",. c #95369A",
"<. c #963B99",
"1. c #993A9D",
"2. c #9D3BA1",
"3. c #A13EA4",
"4. c #834483",
"5. c #834C83",
"6. c #89448C",
"7. c #845287",
"8. c #8A548A",
"9. c #8C598D",
"0. c #8C4593",
"q. c #964199",
"w. c #9B429E",
"e. c #954898",
"r. c #8C5396",
"t. c #97559B",
"y. c #8A6E8D",
"u. c #826A99",
"i. c #926293",
"p. c #99689A",
"a. c #937592",
"s. c #9C739C",
"d. c #A27799",
"f. c #9E44A2",
"g. c #9D4AA0",
"h. c #9A57A7",
"j. c #A344A5",
"k. c #A349A6",
"l. c #A646A9",
"z. c #A947AA",
"x. c #A64AA9",
"c. c #AA4BAC",
"v. c #AA53AE",
"b. c #A558A9",
"n. c #AD4FB1",
"m. c #B14EB4",
"M. c #AD53B2",
"N. c #A55AB3",
"B. c #AD5BB3",
"V. c #B254B6",
"C. c #B25AB6",
"Z. c #B455B9",
"A. c #B65ABA",
"S. c #B95CBC",
"D. c #896AA4",
"F. c #8579A7",
"G. c #986BB3",
"H. c #8D77B5",
"J. c #9878B9",
"K. c #AC6EAD",
"L. c #A862B7",
"P. c #B365B7",
"I. c #BA61BE",
"U. c #B774BA",
"Y. c #9A7FC0",
"T. c #BD65C1",
"R. c #BE6BC2",
"E. c #B075C1",
"W. c #C16DC5",
"Q. c #C577C9",
"!. c #7E8AB2",
"~. c #79A1C6",
"^. c #8C8387",
"/. c #B3939A",
"(. c #8685AC",
"). c #9385AD",
"_. c #8689B5",
"`. c #9786BB",
"'. c #8797BA",
"]. c #9398BA",
"[. c #B293A6",
"{. c #D49C8A",
"}. c #DAA997",
"|. c #C782B3",
" X c #C4A6B1",
".X c #9989C5",
"XX c #8D9AC5",
"oX c #9598C7",
"OX c #A091CA",
"+X c #8BA7C8",
"@X c #94AACC",
"#X c #93B0CF",
"$X c #8BAAD6",
"%X c #95A8D3",
"&X c #89BADD",
"*X c #95B7D9",
"=X c #A2BFDE",
"-X c #8ABCE2",
";X c #97BDE3",
":X c #A2B4E1",
">X c #CB86CE",
",X c #CCB6C7",
"<X c #98C2DE",
"1X c #A0C2DF",
"2X c #85C4E5",
"3X c #89C6E6",
"4X c #8DC9E7",
"5X c #86C6E8",
"6X c #88C7E8",
"7X c #86C8EB",
"8X c #8CCBEC",
"9X c #95C4E5",
"0X c #98C9E6",
"qX c #92CEEC",
"wX c #9ACEEA",
"eX c #95D1EE",
"rX c #9BD3ED",
"tX c #8ECEF0",
"yX c #91CFF1",
"uX c #95D2F2",
"iX c #9BD6F3",
"pX c #9ED8F5",
"aX c #A3CDE8",
"sX c #A1D5ED",
"dX c #A4D9EF",
"fX c #A1D7F1",
"gX c #A3DBF4",
"hX c #A9DEF6",
"jX c #A6DEF8",
"kX c #A9DFF8",
"lX c #ADE0F6",
"zX c #A7E0FB",
"xX c #ADE1F9",
"cX c #B3E4F7",
"vX c #B3E5F9",
"bX c #B8E8FA",
"nX c #EAE8E8",
/* pixels */
"xXcXhXkXxXlXcXcXxXcXbXbXcXcXbXcXcXvXvXvXvXvXsX*XT J q.:.| 1XcXcXcXcXvXgXrXgXzXgXgXgXgXxXxXxXxXcXhXiXgXgXgXjXgXpXzXlXhXgXlXgXrXuX",
"lXlXhXlXxXcXxXlXlXcXbXcXcXbXcXlXlXcXvXvXvXvXsXO.D q.w.f.>.u.hXcXvXlXcXdXrXlXgXgXgXgXgXxXxXxXxXlXhXiXgXgXgXgXgXgXlXlXzXlXgXlXrXeX",
"lXhXhXhXlXlXcXcXlXlXcXcXcXcXcXdXlXcXvXvXbXvX#XH =.>.>.1.j.0.@XvXvXcXcXrXrXgXgXgXgXgXgXzXxXlXxXlXfXiXgXgXgXgXgXfXgXgXhXgXzXgXeXeX",
"lXhXgXhXlXlXcXlXhXhXlXlXcXcXhXaXdXlXlXlXlXrXF.B -.*.:.<.1.1.D.dXhXhXdXeXrXgXgXgXgXfXsXfXgXgXgXgXeX0XiXpXgXgXfXpXrXpXfXfXdXeX4XeX",
"cXhXdXhXcXbXbXcXhXsXrXrXaXsXwXrXiXdXfXfXgXwX| S $.$.#.;.,.1.0.+XpXrXrXrXgXlXxXlXhXhXrX0XeXrXrXeXeXrXgXhXhXlXhXrXeX4XeXeXqX4XeXrX",
"cXcXhXcXbXcXbXbXcXrXgXgXhXhXgXsXfXhXlXkXlX*X{ C A D ] @.*.1.j.D.rXgXfXfXlXvXxXcXcXhXwXrXfXfXfXpXfXgXzXlXxXxXlXrX4XiXrXpXiXeXpXgX",
"cXcXcXcXcXcXcXbXcXrXhXhXhXhXhXhXhXhXlXlXzX#XK G f j k D #.,.k.e.'.gXgXgXcXxXlXlXhXlXrXiXfXfXgXgXfXgXlXlXlXhXjXrXqXiXiXiXpXiXpXgX",
"cXcXlXcXbXcXbXcXcXsXgXhXhXhXhXgXhXhXzXlXlXoXS [ g w v v A #.q.M.t.*XjXhXlXvXlXxXcXhXrXiXfXgXgXfXfXlXgXzXgXlXgXiXeXiXiXiXiXrXpXgX",
"cXcXhXcXbXvXvXcXlXrXgXlXgXlXgXgXgXlXlXlXzX'.n ~ ~ u y q j l *.b.b.H.dXgXlXlXlXlXlXlXqXrXgXgXgXgXgXdXzXlXgXlXgXrXqXrXiXiXiXiXiXgX",
"hXdXrX0X].).).].@X0XgXlXlXgXgXrXdXlXgXhXhXF.n L r.5.y , 9 e D w.P.h.+XfXiXdXdXgXgXwXqXrXfXfXgXpXiXiXrXrXrXrXrX4XqXrXiXiXiXrXeXeX",
"rXrXrX..J -.-.6.5.u.@XdXlXlXlXdXrXgXzXlXlXF.v H 9.p.{ 7 1 9 j *.b.B.D.wXqXwXeXwXqXwXrXpXgXhXhXgXrXeX4XeXeX0X4XeXrXpXgXgXgXpXeX4X",
"hXgX<X[ j.c.z.3.>.L R u.1XlXcXhXdXhXlXlXxX(.h G 7.i.9.b 2 8 f ] t.C.t.+XeXpXdXpXpXrXrXlXlXzXlXlXdXqXiXpXpXiXiXrXpXgXgXgXgXdXqXwX",
"hXlX*X6.z.j.3.2.1.*.J G Y ].cXlXfXzXxXvXhXF.g V R 5.5.V 0 < 9 k :.b.b.+.wXgXzXpXdXgXfXaX#X#X1XdXdXeXpXpXpXpXpXrXdXpXpXzXgXgXeXwX",
"hXlX3Xr.j.3.2.1.,.;.D H B N O.wXgXkXaXoXu.F d v G T R B r < 9 f D q.v.7.9XgXgXgXgXwX_.9.5.5.5.u.(.+XrXgXpXpXpXiXgXzXdXpXzXlXeXeX",
"hXjXwXD.3.2.1.,.,.#.A G B b s ..<X@X .G H H V v c c b c r 1 < e C &.x.6.+XjXpXpXdXF.R 9.9.9.9.8.4.{ o.+XrXgXrXiXpXzXzXdXzXdXqXqX",
"gXfXfX'.1.3.1.,.;.n c H B m s y Y K H L J ~ L H G m c r w q r 8 f @.w.6.!.pXgXzXXXT R v d c v H 5.8.~ R o.*XiXeXeXeXrXrXrXqX4XqX",
"gXfXfXaXh.j.1.,.*.H G G m v c w r G L L L ~ [ [ L L H V V N b u e C >.%.!.xXkXsX .L z 0 ] :.[ C h v T 8.L { '.qX8XqX8XqXqX4XqXiX",
"hXgXhXkXoXf.2.2.,.n b L v b u r v S J L R R R L L L H H H V B b u r $.G '.xXzX#XK V 0 [ I.S.S.Z.c.>.A m { ~ K +.3XiXiXiXiXuXiXgX",
"hXgXhXcX=Xb.z.2.1.<.%.R v c q e k S J J [ R L L L L H H 8.e.~ m i i u i #XxXhXD.H b w g.T.S.S.A.A.A.M.<.M H { G O.0XpXiXiXiXiXgX",
"gXgXgXkXdXJ.M.2.2.1.J R v r w f k A G L [ { L L L G V e.x.-.$.m b u y P dXxX9XT H r c C.T.S.S.A.A.A.A.Z.c.@.G { G O.wXiXiXiXiXgX",
"zXgXrXlXhXOXC.j.2.2.] S c w e h C J ] ~ 4.~ J J G G M G M m M v s u q i '.zX(.H G 0 J I.A.T.A.A.A.A.Z.Z.Z.Z.:.S R V !.uXuXiXeXpX",
"rXrXiXrXdX@XP.c.2.2.1.#.c w g C S J 4.7.8.5.R K V m v v J b.K.K.%.c q 2 Y &XY T b 5 e.I.T.T.S.S.A.A.Z.Z.Z.Z.V.<.S H B '.iXeXqXqX",
"lXgXrXwXfX<XU.B.j.2.2.,.n w h S L 7.9.i.i.9.4.K M m v M e./ / ` [.%.v , 4 P z H w r B.I.S.S.S.S.A.A.Z.Z.Z.Z.m.Z.q.B H F #XfXqX5X",
"lXlXrXrXgXdX`.C.z.3.2.1.D g C H 5.9.p.s.s.p.7.L M m s %.K.^ ; : ` K.A > + . i v 5 S P.I.T.S.S.S.S.A.A.Z.Z.Z.Z.Z.Z.>.m B | 0XqX8X",
"zXlXrXrXgXgX#XP.v.j.3.1.D m M %.h.p.p.s.s.s.p.t.q.J c %.,XnXE ^ ' [.s > O . i w 5 0.S.T.A.S.S.S.S.S.A.Z.Z.Z.V.V.Z.V.:.B m +.qX8X",
"gXlXdXrXpXgXwXG.C.j.3.,.S M J v.C.t.i.p.s.s.P.Q.W.V.-.M d.^.% ; (  XN = O . 6 5 r b.A.S.S.S.A.S.S.A.A.A.V.V.Z.Z.V.Z.n.$.B N !.qX",
"zXdXqXrXfXfXgXXXB.z.3.,.S S w.e.4.8.8.9.i.p.Q.Q.W.V.I.D a & & W _  Xy > O X 2 2 J M.C.A.S.S.S.S.S.S.S.A.Z.V.V.Z.V.V.Z.c.J v } -X",
"wX0XqXeXpXfXgXwXD.M.3.,.G V %.L e.K.K.t.8.p.T.Q.W.S.I.%.s / ) ` /.I , = O X - 7 q.M.B.C.S.S.S.S.S.S.S.A.Z.V.Z.V.V.Z.Z.Z.w.Z N +.",
"eXeXeXpXlXgXzXzX#Xr.n.f.G m m 6.|._  X Xb.t.T.Q.W.c.e.v s b T I y 6 3 = X + - m k.M.B.C.A.S.S.S.S.S.S.A.Z.Z.Z.V.V.m.m.Z.M.=.v x ",
"pXiXiXlXlXzXgXlXhX'.{ -.K B v b.{.Q  XnXa.H P.S.-.n b E u r q 6 4 6 3 + . # 3 *.f.v.M.C.A.A.S.Z.Z.A.Z.Z.Z.Z.Z.V.m.m.m.Z.m.c.S c ",
"pXpXpXgXgXdXzXgXgXwX+X..T B m L.' * U a.% a 8.[ m $ 4 [.N 6 6 6 4 6 $ X + $ v <.f.M.M.Z.Z.A.A.A.Z.m.Z.N.V.V.V.m.n.G.%X%XOXB.>.v ",
"rXpXpXzXzXzXzXzXgXqXpXpX(.m v b.{.) ^   & ~ ~ B [.t 2 I N 4 3 - - $ X o $ 5 &.w.f.v.V.Z.A.A.A.Z.M.OX;X;X:XOXY.N.Y.9XuXiXuX;XY.L ",
"iXiX*X'.F.O._.#X9X3XiXjX#XB j >. X' ! W ) 9.M y y.p 6 R b , , + X . . + - n q.w.k.c.M.V.V.Z.Z.N.oX4XiXiXiXiXiX&X9XeXeXiXuXuXqX+X",
"pXXX{ m g g r u x X.+X9XwXY 9 f 9.,X}.{.a.m r 0 6 q r z , @ O X . . X + 0 &.q.w.g.k.b.v.M.M.n.J.2X8XqXiXiXiX8X4X8XeXpXiXiXeXqX8X",
"+XK M s r w r r q 0 6 z } P > 9 w ~ 9.I w 0 7 3 2 , < @ @ @ 0 r w , + O w &.q.G.%X*X$X%XOXY.E.;XqXqXpXiXiXuXuXqXrXgXgXpXpXiX4X5X",
"{ G c 5 7 0 0 0 w r e 0 , @ @ > < < 9 1 0 3 3 2 = = @ > r D :.w.q.*.w = = [ oXeXpXiXeXiXuXyX8XyXuXiXpXiXiXiXuXeXgXpXpXpXpXpXqX4X",
"J m 0 r >.<.@.j 0 0 w e w w < > > < < < , 3 , + + 2 G e.b.k.x.x.c.c.>.e > P iXpXiXuXeXeXiXuXuXuXuXiXiXiXuXuXuXeXpXpXpXpXpXpXqX8X",
"G u 7 :.c.c.c.l.*.k e 7 0 w w q 8 < = @ + + X X 4 7.U.U.P.P.Z.C.M.c.c.$.8 y '.pXuXuXeXuXuXuXuXuXeXuXiXiXiXuXeXeXpXpXpXfXpXpX8X8X",
"m 7 C c.c.c.n.c.c.l.<.D g 0 9 0 0 0 7 5 3 2 # , v U.>XQ.R.I.S.A.Z.V.n.f.z 4 ..uXeXeX8XeXeXeXeXeXqX8XeXiXuXuXeXqXqXpXiXiXiXeX2X8X",
"z q <.c.c.c.c.c.c.c.z.l.j.<.@.l g 0 1 7 5 5 , 9 S U.>X>XW.T.S.A.Z.V.M.c.S 6 I <XiXeX4X4X4XeX8X4X8XqXeXiXiXiXeXqX6X3X4X4X4X2X6X4X",
"w C x.c.c.v.c.c.c.c.c.c.c.z.c.z.f.>.&.D n g 0 9 A P.>X>XR.I.S.A.Z.V.M.c.J q p #XgXiX4X4XeXeXeXeXqXyXpXpXpXpXpXqX2X4XqX8XqX6X8XiX",
"0 -.c.c.c.c.c.c.c.c.c.c.z.z.c.c.c.c.c.x.l.j.*.f n P.Q.Q.W.I.S.A.V.V.n.c.J 6 p '.gXpX4X8XeXeXeXeXqXiXgXpXiXpXpXqX6XqXeXeXqXqXqXiX",
"d f.l.x.c.c.c.c.c.c.c.c.z.c.c.z.c.c.c.c.l.j.>.j g w.W.W.W.I.A.V.V.M.c.k.m 6 p '.pXpX4XeXeXeXeXuXiXfXfXpXpXpXpXqX6XyXuXyXyXyXuXpX",
"C j.c.c.c.c.c.c.c.c.c.c.m.c.z.c.c.c.c.l.h.`.oXo.h J I.T.I.S.Z.V.n.c.c.>.u 6 p @XpXfX4X8XuXuXuXuXiXpXpXpXpXpXpXqX6XyXqXyXuXyXuXiX",
"D k.c.c.c.v.c.c.c.c.c.c.c.c.c.c.c.c.l.J.;XuXuX+XB c q.S.A.Z.n.n.c.z.w.v 6 3 p &XpXuX5X8XeXuXuXiXyXyXiXiXpXiXiX3X6XyXyXqXyXyXtXyX",
"*.c.k.k.c.c.c.c.c.c.c.c.c.c.c.c.n.l.J.qXiXuXqX2X..c h -.n.n.n.n.l.>.c 3 2 @ + Y `.$X8X8XeXiXiXiXqX8X3X6X6X3X2X6X8XyXuXuXiXqX8X6X",
">.k.c.v.c.x.c.c.c.c.c.c.c.c.c.c.z.N.;XgXpXiX6X8X+XF z r C $.&.$.C 0 3 2 4 o 2 ,.n.L.-XiXpXgXgXpXyX5X8X8XqX8X8X6XyXiXpXiXpXiX4X5X",
"q.k.x.x.x.c.c.c.c.c.v.c.c.c.c.c.l..XpXpXpXpX8XqXeX(.B w 0 0 7 3 3 3 4 p O.X.$.A.C.h.9XpXpXgXpXpXiX4XyXyXuXyXyXqXiXpXiXiXiXiX8X8X",
"q.x.k.c.c.x.c.c.c.v.c.c.c.c.c.l.b.;XpXpXpXpX8XqXuX0X(.N q 1 1 2 6 t } '.4XyXJ.M.h.oXyXpXpXpXpXpXiX4XyXyXuXyXqXyXiXiXiXiXiXpX8X4X",
">.k.k.k.x.x.c.c.c.c.c.h.Y..X.XJ.%XpXpXiXpXpX8XqXuXuXrX+X} > @ p O.+XrXqX8XuX9X%X*XqXiXpXpXiXpXpXrX5XyXyXuXuXyXqXiXiXiXiXiXiX4X8X",
">.k.k.k.x.x.x.c.c.l.G.*XiXpXpX3X8XiXiXiXiXyX5X8XeXeXuXiXH.l 9 o.pXpXiX6X8XyXyXuXyXyX8XrXiXiXpXiX4X-XyXyXyXyXyX8X8XiXiXiXuX8X2X7X",
"$.l.k.k.k.k.k.c.l.h.$X5X3X3X2X5X4XqXuXeXyX4X8X8XuXiXuX9XN.3.;.o.3X4X-X5X8XyXiXuXyXtX8X2X2X3X6X2X2X8XyXuXuXuXyX8X8X3X3X3X5X-X7X8X",
"D k.k.k.l.k.k.l.l._.5X8X8X8X8X8XuXuXiXiXiXuXqXiXiXpXpX:XI.C.l.H.4X8X8X8XiXpXiXiXfXiX5X5X8X8X8X8X7XtXiXiXiXiXiX8X5X8X8X7X8X8X8XuX",
"A k.k.k.k.k.k.k.h.&XtXyXqXyXqXqXuXiXpXiXiXiXuXpXiXiXpX:XL.v.h.$XeXuXyXyXuXiXpXpXiXiX3X8XyXyXtXtXtXuXiXiXiXiXpXeX5X8X8XtX8X8XyXuX",
"n w.k.k.k.g.j.f..X7XtXyXyXyXyXqXiXiXiXiXiXiXuXiXiXpXiXiX;X$X-XyXyXyXyXeXiXpXfXiXiXiX3X8XtXtXtXtXyXuXiXuXuXiXpX8X5X8X8X8XtX8XyXiX",
"c q.k.k.j.g.G.`.9X5XtXtXtXyXyXyXuXiXiXiXiXiXqXiXiXiXiXiXuX4X8XyXyXyXyXyXiXfXiXiXiXiX2X8XtXtXtXtXtXuXiXiXiXpXiXtX5X8XtX8X8X8XuXuX",
"d -.z.f.G.;XuXuX8X-XtXtXtXtXtX8X8XiXiXiXiXqX3XyXiXuXiXiX4X5X8XtXyXyX8X8XeXiXiXuXuX8X2X4X8X8XtXtX8XtXuXuXuXuXtX-X2X8XtXtX8XtX8XtX",
"c ] l.h.$X6X5X7X2X7XtXtXtXuXtX8X5X2X8X8X3X2X7X6X8X8X4X6X2X7X8XuXuXuXeXeX4X5X6X4X5X2X5X8XtXuXuXtX8X6X5X5X6X2X2X5X8X8XuXtXtXtX8X2X",
"m m f.H.7X7X7X7X5XtXuXiXiXiXuX8X2X8XyX8X8X6X8XtXtXtX8X8X7XtXiXiXiXiXpX8X2X6X8X8X7X7XtXuXuXiXiXiXyX2X5X8X8X8X5X5XyXiXiXiXiXuX5X2X",
"m z >.XXtXtXtXtX8XtXiXuXuXiXuXtX6XuXuXyXyXtXtXyXuXyXyXyXtXuXiXuXiXiXpXyX5XtXtXtXtXtXyXuXiXuXiXiXtX2X8XtXtXtXtX8XuXuXuXiXuXiX6X5X",
"T c [ $XtX7XtXtXtXuXuXuXuXiXuXtX8XtXtXtXtXtXtXtXuXtXtXtXtXuXuXiXiXiXiX8X6XtXtXtXtXtXtXuXpXuXuXuXyX5XtXtXtX8XtXtXuXuXuXiXiXuXtXtX",
"+.b F 5XtXtXtXtXtXuXuXuXiXuXiXuX8XtXtXtXtXtXtXuXtXtXtXtXtXuXuXiXiXuXpX8X7XtXtXtXtXtXtXuXuXuXpXuXyX5X8XtXtXtX8X8XuXuXuXuXuXuX8XtX",
"-X[ F ~.tXtXtXtXtX7XtXuXuXpXuX7X2XtXtXtXtXtX7XtXtXtXtXtX8X8XuXuXiXiXtX5X5XtXtX8XtXtX7XtXuXuXpXpXtX~.8XtXtX8XtX7XyXuXuXuXuXyX5X8X",
"2XX.x ~.tXtXtXtX7X7X7X7X7XtX~.2X5XtXtXyXtX7X7X8XtXtXuXtX8X7X5X5X5X7X2X2X7XtXyXtXtX7X7X7X7XtX7X7X7X5X8XtXtXtX8X8X5X5X2X5X5X5X6X5X"
};
