/* XPM */
static char *Screenshot_from_2025_05_07_11_10_25_resized[] = {
/* columns rows colors chars-per-pixel */
"64 64 253 2 ",
"   c #3B0A0E",
".  c #2D0F1D",
"X  c #350B12",
"o  c #3A0C13",
"O  c #2A121D",
"+  c #38111A",
"@  c #2A1728",
"#  c #391B29",
"$  c #370A3D",
"%  c #2E1C31",
"&  c #321F32",
"*  c #381C34",
"=  c #342333",
"-  c #332135",
";  c #382439",
":  c #3B293E",
">  c #420D0F",
",  c #450E11",
"<  c #4B0F17",
"1  c #451111",
"2  c #4B1413",
"3  c #491719",
"4  c #521915",
"5  c #541A1A",
"6  c #57191C",
"7  c #721A1B",
"8  c #7D201D",
"9  c #411D27",
"0  c #581B25",
"q  c #6B1C25",
"w  c #43293C",
"e  c #522234",
"r  c #6F2831",
"t  c #3D1056",
"y  c #3E2C42",
"u  c #3E254A",
"i  c #3F3449",
"p  c #4E0B54",
"a  c #640B5C",
"s  c #412E45",
"d  c #462C47",
"f  c #582C4C",
"g  c #433146",
"h  c #45334A",
"j  c #49354D",
"k  c #4B374E",
"l  c #482C57",
"z  c #4B3751",
"x  c #443C53",
"c  c #4D3A53",
"v  c #5C3754",
"b  c #523C55",
"n  c #533D5A",
"m  c #67364C",
"M  c #49066A",
"N  c #490475",
"B  c #510979",
"V  c #531971",
"C  c #6D156B",
"Z  c #53276E",
"A  c #583967",
"S  c #5C3675",
"D  c #6A3476",
"F  c #49445A",
"G  c #56425D",
"H  c #59445C",
"J  c #6B4254",
"K  c #594564",
"L  c #55526F",
"P  c #654B68",
"I  c #674876",
"U  c #6F4E70",
"Y  c #6B5778",
"T  c #71587A",
"R  c #58627A",
"E  c #6B647E",
"W  c #87271D",
"Q  c #8B3529",
"!  c #943925",
"~  c #9C4926",
"^  c #84473F",
"/  c #A34C28",
"(  c #A7522A",
")  c #AB542C",
"_  c #AC5331",
"`  c #A95636",
"'  c #B45B33",
"]  c #BA5F35",
"[  c #BA6538",
"{  c #C26E3D",
"}  c #C5743F",
"|  c #803775",
" . c #91524D",
".. c #B16B52",
"X. c #82586C",
"o. c #91686D",
"O. c #AE7571",
"+. c #C97643",
"@. c #C07D63",
"#. c #BA8876",
"$. c #CA8F7B",
"%. c #570786",
"&. c #56118E",
"*. c #5C1988",
"=. c #5C0496",
"-. c #63098C",
";. c #64188A",
":. c #640797",
">. c #770B97",
",. c #691396",
"<. c #761899",
"1. c #5E2982",
"2. c #652888",
"3. c #693487",
"4. c #702C94",
"5. c #763797",
"6. c #6A07A6",
"7. c #7808A8",
"8. c #7715A7",
"9. c #7205B7",
"0. c #7929A5",
"q. c #755B84",
"w. c #73538D",
"e. c #774798",
"r. c #5B6C85",
"t. c #7A6389",
"y. c #6E718F",
"u. c #7B4BA2",
"i. c #776DAE",
"p. c #7505C6",
"a. c #7F7AC0",
"s. c #86159C",
"d. c #873697",
"f. c #8B11AD",
"g. c #8A0AB7",
"h. c #9819B5",
"j. c #A417BB",
"k. c #8F32AF",
"l. c #9627B9",
"z. c #A72DBB",
"x. c #8C6F8D",
"c. c #846A95",
"v. c #996292",
"b. c #8A739B",
"n. c #8F4BAD",
"m. c #A44DB5",
"M. c #8A67A6",
"N. c #8D76A2",
"B. c #8B78A3",
"V. c #927AA5",
"C. c #957CAB",
"Z. c #977BAD",
"A. c #946DB4",
"S. c #9B7AB8",
"D. c #A770BA",
"F. c #8C0DD0",
"G. c #8E1DD5",
"H. c #AC12CF",
"J. c #A90CD5",
"K. c #AB27C7",
"L. c #B425CA",
"P. c #A938C8",
"I. c #B535CB",
"U. c #B93AD2",
"Y. c #C22FD5",
"T. c #CF21DE",
"R. c #D32EE4",
"E. c #AC48C6",
"W. c #B34DCF",
"Q. c #837FC8",
"!. c #9977C3",
"~. c #B36ECE",
"^. c #A57CC5",
"/. c #C641D6",
"(. c #C658D9",
"). c #CC68DA",
"_. c #D369E5",
"`. c #DF68ED",
"'. c #D878E6",
"]. c #71859C",
"[. c #6C87A2",
"{. c #7695B0",
"}. c #7DA9C8",
"|. c #B28D8F",
" X c #9A85AB",
".X c #8C92AB",
"XX c #898FB1",
"oX c #9C82B2",
"OX c #9489B6",
"+X c #A587BA",
"@X c #AE95B0",
"#X c #A996B6",
"$X c #B4A9B7",
"%X c #C69B9F",
"&X c #C7A9B2",
"*X c #948CCF",
"=X c #A989C5",
"-X c #B092CD",
";X c #85A8C7",
":X c #90AACC",
">X c #89BBD8",
",X c #96B8D8",
"<X c #BAA6C7",
"1X c #B0B0D1",
"2X c #A597E1",
"3X c #99B7E4",
"4X c #B4AEEE",
"5X c #C591D8",
"6X c #C8B0D2",
"7X c #D987E6",
"8X c #CE98E5",
"9X c #E997F0",
"0X c #CCB0EB",
"qX c #E9AEF0",
"wX c #96C3DD",
"eX c #ACC5D9",
"rX c #85C4E6",
"tX c #89C6E6",
"yX c #8CC9E7",
"uX c #86C6E8",
"iX c #88C7E8",
"pX c #8CCBED",
"aX c #97CAE7",
"sX c #92CEEC",
"dX c #95D1EE",
"fX c #9BD3EE",
"gX c #8ECEF0",
"hX c #90CFF0",
"jX c #9FC9F0",
"kX c #8FD0F2",
"lX c #95D2F2",
"zX c #9BD6F3",
"xX c #9ED8F5",
"cX c #9EDDF8",
"vX c #A1D5ED",
"bX c #A8D4EB",
"nX c #ADCEF1",
"mX c #A2D6F1",
"MX c #A4DBF4",
"NX c #A8DCF7",
"BX c #A9DEF6",
"VX c #ADE1F7",
"CX c #AEE1F8",
"ZX c #B3E4F7",
"AX c #BDE4F6",
"SX c #B2E4F8",
"DX c #D6C2D3",
"FX c #D1D0E8",
"GX c #EBD9E3",
"HX c #EBD2ED",
"JX c #C2E7F8",
"KX c #C5E9F9",
"LX c #CAECFA",
/* pixels */
"LXKXKXKXKXLXKXKXLXKXLXLXLXLXLXLXJXLXLXLXLXLXAXAXKXKXLXAXJXJXKXKXKXLXLXKXAXAXAXJXAXJXAXKXKXKXKXKXKXAXAXAXAXAXJXAXAXKXAXKXJXAXAXZX",
"VXVXBXBXVXVXVXCXBXSXSXSXAXSXSXSXVXZXZXZXZXZXVXvXBXVXVXVXVXMXZXZXZXZXVXVXfXMXBXMXMXMXmXNXCXVXCXCXCXMXxXMXcXMXMXMXMXCXVXMXVXMXMXsX",
"BXZXZXBXVXSXSXSXSXZXZXAXAXZXAXSXVXZXZXZXZXSXZXfXcXVXBXBXVXMXZXZXZXZXZXZXfXxXMXMXMXMXMXNXCXCXCXCXVXmXxXMXMXMXMXMXNXVXVXVXNXBXMXsX",
"ZXBXNXMXVXCXCXSXSXNXBXZXZXZXZXZXfXZXZXZXZXZXvXfXMXBXVXBXMXMXBXZXZXVXVXMXaXxXMXVXMXzXnXvXMXNXNXCXNXsXlXMXMXMXMXMXxXMXMXMXMXMXfXyX",
"SXNXmXMXVXZXSXSXVXBXvXvXMXvXvXfXfXvXMXMXMXvXfXfXBXBXVXVXcXMXfXfXmXmXmXhXdXMXBXMXnXjXbXfXjXzXjXjXaXsXzXcXMXVXMXvXzXdXdXdXfXsXyXdX",
"ZXZXBXBXZXZXSXSXZXMXfXfXMXMXvXfXfXMXMXVXMXMXvXBXZXZXSXSXVXfXdXfXxXmXzXjXvXVXZXVXVXjXmXdXjXmX3XzXdXzXVXCXVXVXZXvXaXyXfXfXdXdXyXxX",
"ZXZXZXVXZXAXSXAXZXMXxXBXVXxXVXVXMXMXcXVXVXVXMXVXVXZXVXVXZXfXfXMXMXMXNXnXjX3XbXnXNX3XvXaX4X4X*X>X:XXX.XXX;XwXBXMXaXdXxXzXzXzXxXvX",
"AXSXZXVXZXZXSXZXZXMXfXxXVXVXVXVXxXVXVXVXVXVXBXVXZXVXVXVXVXMXxXMXNXMXNXnX4X3XNXFXnX:X1X1X2X*Xi.Y A c x h F H E ;XtXzXzXzXzXxXzXMX",
"ZXZXZXVXZXZXZXZXZXBXvXVXVXMXBXBXMXVXVXVXVXVXMXVXZXVXVXBXZXvXzXVXMXcXBXvXeX1X$X0X#XOXx.V.t.I L c k j h g j h h k r.wXzXzXzXzXzXxX",
"ZXZXvXMXZXZXZXZXZXvXfXBXVXcXBXMXvXMXVXVXMXVXMXcXVXVXVXBXVXaXaXeX1X$X%X#.@...O.0X2XQ.B.J n b b z k j h s h h h h g L wXzXzXzXfXdX",
"fXvXfXvXfXvXfXvXaXfXvXMXMXVXMXvXfXMXVXSXMXfXaXsXaXwXeX$X@X#.#...+.+.#.#.|.%X8X2XQ.Q.i.Y l x z z j j s g j h h g i y R aXzXfXdXdX",
"MXMXfXfXfXMXxXzXfXfXZXZXZXVXZXVXMXMXaX.Xy.o.o.#.|.&X$Xo.......^ ..|.$X$X4X2X2XQ.Q.Q.{.a.y.w.L F n z s w w w w g w i g ].VXVXzXyX",
"VXVXxXfXMXBXNXVXNXMXCXCXVXVXSXZXeX.XJ ^ ` { $.GXGXGX@XG v U #Xb.-X<X=X*X=X2X2XQ.Q.Q.Q.a.i.w.I A c w 9 o     + * w g : F >XVXzXaX",
"VXMXMXfXNXBXVXNXNXNXCXSXVXZXbX:XU J  ...O.|.DXHXGX1XN.g z q.-X#X6X#Xt.S.S.=X0X2X*XQ.a.L h i d d # o   , , , > o = : : : ].vXMXsX",
"VXVXMXvXMXBXBXBXBXMXBXCXBXAX1Xb.V.@X&X6X6X6XHXFX<X=XM.l A c.!.M.Y K q.!.S.S.=X4X2XQ.e.K n z d + , , , , 1 , 1   + ; i : H vXxXsX",
"MXVXMXfXMXNXBXBXMXvXNXJXFX6X<X#X=X=X=X=XD.6X0X-X^.S.w.S u.S.!.!.I K M.=X2X!.i.-X!.i.L Z K n + , < 2 2 , 1 1 1 1   + : : i ;XdXyX",
"xXfXfXfXMXVXVXVXMXxXfXFX$X X#Xc.S.^.!.^.^.5X-X^.!.!.5.^.M.n.^.~.A.M.A.2X2Xi.i.Q.w.i.S A A P l 3 0 6 6 < 2 , , , > X ; y : [.pXdX",
"VXMXxXMXVXZXVXVXVXzXbX6XS.q.n M.^.^.=X8XS.=X^.!.A.i.^.8Xe.1.u.n.n.5.5.n.A.n.5.u.e.u.3.S A I I l 0 6 0 6 5 4 1 , o X & : ; [.dXzX",
"VXMXMXVXCXSXVXVXZXMXnX=X+XB.w.S.^.^.5X5Xe.n.5.5.4.5.~.~.4.&.2.5.4.2.2.C %.B V e.3.u.5.S S S L I v 0 0 6 6 6 6 < , X @ : w [.zXxX",
"VXxXMXVXCXVXVXVXVXVX6XD.D.D.D.A.n.M.~.^.1.4.n.n.n.n.n.n.&.&.%.%.B M N B M N M V 4.5.2.1.S S S w.I v 0 0 0 0 6 6 1 o & w : [.zXxX",
"VXMXxXVXCXVXVXCXZXxXbX8X7Xm.| C C a 3.k.*.*.-.B %.N %.k.n.0.6.=.-.-.=.=.=.%.%.%.&.1.1.1.2.3.1.3.e.I f q 0 0 0 < 2 X = y : [.cXzX",
"xXMXfXxXVXVXVXVXMXaXfXvX4X5X| a e a a d.n.<.:.:.=.6.=.6.6.9.9.9.7.l.k.<.=.=.=.=.%.N *.1.2.2.4.5.5.e.v f e 0 6 6 1 O - : : {.lXfX",
"MXMXxXaXaXfXdXdXaXdXfXvXBXbX4X!.C a a a -.:.7.7.p.p.p.p.p.p.G.~.8X9X7XP.9.p.9.9.=.N N *.2.4.0.k.d.3.3.S f 0 0 6 3 @ = = g >XlXgX",
"VXVXMXdXvXvXxXxXfXfXBXBXVXVXCX0X(.s.>.s.>.>.g.F.F.F.G.p.p.E.7X9X7X_.W.P.9.p.p.p.6.&.0.&.*.,.4.0.0.1.Z A f 0 0 6 + @ - % L fXzXiX",
"MXVXMXfXvXMXMXMXMXxXMXVXVXBXVX4XE.l.8.k.s.g.G.H.J.H.9.F.F.W.`.'.(.R.Y.L.f.9.F.F.P.W.z.&.%.;.2.;.1.1.Z Z l d e 6 . @ % % y.cXcXpX",
"VXMXMXfXxXMXMXcXMXMXMXVXMXNX3X~.s.;.h.m.Y.T.I.H.g.0.&.:.,.8.W.(./.`.R.T.:.6.F.G.z.j.s.%.%.N V V Z 1.Z Z Z l d * O & % y }.CXzXpX",
"MXVXvXfXxXMXxXMXvXxXMXVXVXjXn.k.W.N 0.L.(.'.(.W.P.,.B n.).~.P.l.K.R.`.J.=.=.p.h.f.g.:.N %.N M M V V Z Z l l l y % % % L dXVXzXyX",
"MXxXaXaXzXvXxXxXxXfXxXMXvX!.E.7X_.;.4.L.).HXqX'.P.>.n.'.'.`._.Y.L.T.R.g.:.=.%.>.h.f.N N =.=.B M M Z t V l l u ; ; % & {.zXzXyXtX",
"aXyXyXfXxXMXcXxXxXzXpXyX*Xf.~.qX_.l.4.P.P.7X'.(.z.8.W.I.K.K.z.z.L.Y.s.p M &.8.%.k.<.N :.p.6.%.M t M M y u l % g H w F rXyXtXiXgX",
"xXxXfXxXVXVXVXxXVXfXpX2XW.l.m.9X).P.8.l.G.(.I.h.j.-.k.K.j.g.h.h.f.s.C | n.W.G.%.:.:.:.F.F.g.-.M ;.,.M * & ; % G H G r.fXdXsXsXfX",
"xXxXfXMXcXMXVXVXNXfX3XP.U.l.<.7X_.W.f.g.f.U.L.j.s.p p s.f.k.E.l.:.B U qX_.z.>.N %.:.g.J.J.J.f.d.W.6.N $ O O @ : H K R yXlXzXzXzX",
"xXxXxXxXMXVXcXVXVXfX!.K.j.f.s.(.(.Y.E.8.f.U.T.L.d.n.V.m.s.~.I.j.l.7.~.7Xz.f.6.N %.-.7.J.J.J.J.K.G.=.N t & = = @ w H H }.zXzXzXzX",
"xXzXxXvXNXMXVXVXBXFX6X5X~.m.m.)._.(.E.>.C z.`.qX9X9X'.(.E.l.f.f.E.k.).z.f.f.:.M :.f.h.L.H.H.g.H.g.%.N *.;X3X>XR - i j {.xXlXlXzX",
"zXzXfXdXxXcXzXvXfXeX6X-X#X+X#X+X@X5X=XA.D.).qX7X_.7X'.).(.m.k.m.E.k.I.h.f.h.-.N -.K.R.T.H.j.f.H.H.%.N =.:XxXlXgX[.q.z {.zXdXsXsX",
"cXMXfXgXtXdXdXgXyX1X+XoX+XoXZ.oXS.Z.$X<X XV.A.D.~.=X-X5X5X8XqXqXqX8X5.D 5.3.D S D n.m.z.I.z.d.d.4.Z Z V y.{.{.;X{.q.x ;XxXxXsXpX",
"MXMXzXtXfXfXzXzXzX,X XZ.Z.oX+XS.oXoX-Xx.T P s q.Z.Z.V.Z.Z.Z.=X-X5XN.d H c z z c b P D w.D U P H b c h s g H t.t.q.x R aXxXxXfXrX",
"MXMXxXyXfXzXzXzXzXfX:Xb.c.t.t.x.x.V.+XU Y K : Y Z.V.Z.V.V.V.V.Z.S.t.n K k j j j k k b b b b k h s s g s y G G H H L >XxXxXxXzXtX",
"MXMXxXdXzXzXzXzXzXzXbX#XoXB.v r 8 r U b Y K % v x.c.b.b.x..Xb.B.N.b.P k k j j j k j j k z h h g d s s y - h k h F >XMXxXxXxXzXiX",
"MXMXfXyXlXxXzXzXlXfXbXFX#XoXP 8 W W  .P T K . < 0 r m m J P U E t.t.n j j j j z k j h h d g w y y : ; - & % % @ F xXMXxXxXxXsXiX",
"fXdXyXyXdXlXzXzXlXdXaXFX6XB.U r ! / ` o.v.b o 6 7 W W 8 7 7 7 q T T P s : : = & * * = # * * = = & & & & & & % - r.dXdXdXdXsXtXuX",
"yXtXyXdXzXxXMXxXfXaXtX,X$XE P r ! ' ] _ Q q q 7 ! ( ( ~ Q W 8 8 x.b.c.H j h 9 X     X       X     X X O % ; : [.tXrXtXtXtXiXrXpX",
"dXdXdXzXMXxXMXMXMXsXpX:XU P q.r ! ' ] ] ] _ _ ! ( ' ( ( ~ ! W Q x.b.c.K z h 3   , > , > 1 >   >     X O - s F yXtXpXpXdXdXpXpXfX",
"dXdXfXzXxXMXMXMXMXdXsXfX@Xb.c.m ! { { { ] ] ] _ ' ( ( ( ( / ! Q |. Xc.G z h 3 , 2 2 4 4 4 2 4 2 2 1 X @ ; s R aXtXpXlXdXdXsXdXlX",
"dXzXzXzXxXxXMXMXMXdXsXlX1X Xb.m ! { +.+.+.+.+.{ [ [ ) ( / / ! ! x.@XU n z h 3 , 2 4 4 4 4 4 4 4 2 > . @ y y ].xXtXpXdXlXkXkXdXzX",
"zXlXkXfXcXMXMXVXMXsXpXfX,X#XV.J Q ] +.+.+.+.+.+.} } } } [ [ ( ! X.H K n k j + , 5 4 4 4 4 2 4 2 2 > O % y s {.zXrXpXhXsXdXlXgXlX",
"lXfXgXdXdXdXdXdXpXrXpXfX,X<Xx.v Q ' ] +.+.+.+.+.+.+.} [ [ [ ) ~ |.b.t.G k j 3 2 4 4 4 4 4 4 4 4 2   O = y x >XpXiXpXhXhXsXkXpXpX",
"zXzXgXiXrXyXiXiXrXpXlXxX,XE v A Q ` ' ] ] +.+.+.[ [ [ ( ( ( / ~ O. Xy.n k d 3 4 5 5 4 4 4 4 4 4 4 X O = s L >XrXpXlXzXzXzXzXlXuX",
"xXcXfXiXgXdXlXdXdXdXxXMXfXb.c.q.m ` +.+.] ] ] ] ' ) ( ( ( ( ~ ~ x.b.c.H k j 3 4 5 5 4 4 4 4 4 4 4 + @ : s r.gXpXsXzXzXzXzXxXlXrX",
"xXxXzXpXlXlXlXlXlXlXxXxXxX-X Xt.m ) } } +.+.} { [ ' ) / / / / ~ O. Xt.b k j 3 4 4 4 4 4 4 4 4 4 2 + @ : g [.lXgXdXzXzXzXzXxXlXpX",
"zXxXlXtXsXlXlXlXlXlXxXxXbX1X1X XU ` [ { +.} +.+.} { ' ( / ~ ~ ~ o.@XP b k g 3 4 4 4 4 4 4 2 4 4 1 O % i g }.lXdXfXzXzXzXzXzXdXiX",
"fXxXdXrXhXlXdXlXlXlXxXMXfX$X6X6X6XO. .#.@.+.+.{ [ ' ) ( ( / ~ ~ X.H H b k g 3 4 4 4 4 4 4 4 4 4 2 O = y F tXdXgXgXzXzXzXzXzXdXrX",
"dXpXrXiXpXkXdXdXsXpXdXsXsX-X X@X$X@X&XDXDX&X%X#...' ( ( ( / ~ ~ o.t.t.G k d 5 5 4 4 4 4 4 4 4 4 + O : i R gXgXpXpXpXdXdXdXpXrXrX",
"rXrXrXpXlXzXzXzXzXhXuX>XtX-X X Xx.t.oX+X<X1X6XDX6X&X|.O...( ~ ~ o.V.c.c k w 4 5 4 4 4 4 4 4 4 4 + @ : g ].fXzXgXtXrXuXrXrXrXrXpX",
"pXpXiXlXzXzXxXxXmXhXuXhXpX:X XE n c.oX XC.$X XoX#X$X<X<X&X@X|.O.o.V.t.n G w 5 4 4 4 3 4 3 3 # # = : h k F >XzXzXtXpXpXpXpXpXpXlX",
"pXpXpXlXlXzXzXcXzXhXpXhXhXhXtX:X.XoXZ.V.b. XY t.V.V.V.Z. X X#X@X@XV.c.c k w 9 9 # # : w s g g k H w h : F tXxXzXpXpXpXgXpXpXpXlX",
"pXpXpXlXzXzXzXzXxXpXiXhXhXhXhXsXdXaX,X:X XY K B.Z.V.N.#X$XT N.V.B. XT c k k k k F F k h h j : h H = : = R cXxXfXrXpXgXpXpXpXpXlX",
"pXpXkXkXzXzXcXlXzXiXiXgXgXgXhXgXsXlXzXzXaX,XXXOXZ.V.V.q.P K N.B.B.b.K h k j h g K k h h h g : @ @ % - F ;XzXlXgXrXtXpXpXpXgXpXkX",
"pXkXuXuXgXgXkXkXiXrXuXgXgXgXgXpXpXpXlXdXlXsXuX>X>X:XOXc.P q.N.B.B.b.K j k k h - & y h g y y i x L r.[.rXlXsXgXrXrXiXgXpXgXgXpXpX",
"kXkXuXuX}.kX}.kXrXuXpXlXlXlXlXhXiXrXrXpXiXrXuXpXgXpXiX>X;XXXB.B.b.b.K h j z j g i x L r.[.{.>XyXuXuXrXrXuXuXrXrXiXlXlXlXlXlXpXrX",
"lXlXkXrXgXkXkXpXpXpXlXzXzXxXlXlXrXpXhXlXhXgXpXgXhXhXhXhXhXpXaX,XXXOXY L R r.[.{.}.>XuXkXzXxXlXzXlXuXuXpXgXgXpXpXpXlXlXzXlXzXdXrX",
"lXlXkXuXpXgXgXkXgXkXlXlXlXlXzXlXiXsXhXgXgXgXgXgXlXlXgXhXgXgXlXzXlXsX,XtX>XgXgXkXgXgXgXlXlXzXzXzXcXuXpXpXgXgXpXpXkXzXlXzXzXzXkXuX",
"cXlXkXuXpXpXkXpXgXkXlXlXlXzXzXlXpXgXgXgXgXgXgXgXlXgXgXgXgXgXlXzXzXcXxXzXuXgXgXgXgXpXpXkXlXzXkXlXlXpXuXkXgXgXpXpXkXlXlXlXlXzXlXuX",
"cXkXgXrXpXgXpXgXgXgXlXzXlXlXzXlXuXpXgXgXgXgXgXgXlXgXgXgXgXgXlXzXzXzXzXkXrXgXgXgXgXgXgXkXlXlXlXcXkXuXuXkXgXgXpXgXgXlXzXlXlXlXgXuX",
"kXkXgX}.uXpXpXgXpXpXgXkXlXhXlXgXrXuXgXgXgXgXpXuXgXgXgXgXgXiXgXlXlXlXlXuXrXuXgXgXgXgXpXgXkXlXlXcXpXrXuXpXpXgXpXgXuXgXlXlXlXlXiXiX"
};
