/* XPM */
static char *Screenshot_from_2025_05_07_11_10_01_resized[] = {
/* columns rows colors chars-per-pixel */
"64 64 244 2 ",
"   c #1E133A",
".  c #271D2C",
"X  c #2F1B32",
"o  c #31232D",
"O  c #2B2434",
"+  c #2D283B",
"@  c #362739",
"#  c #57291B",
"$  c #562B1E",
"%  c #5D2D1D",
"&  c #632E1D",
"*  c #7A2F1A",
"=  c #66331E",
"-  c #77341D",
";  c #4B282A",
":  c #592D25",
">  c #5C3428",
",  c #462834",
"<  c #512E35",
"1  c #4A3135",
"2  c #5B3C33",
"3  c #573538",
"4  c #602F21",
"5  c #643222",
"6  c #6A3523",
"7  c #6C3925",
"8  c #64372C",
"9  c #6D3B29",
"0  c #783925",
"q  c #733D2A",
"w  c #673B36",
"e  c #753E33",
"r  c #76481D",
"t  c #5F423C",
"y  c #754B27",
"u  c #76412C",
"i  c #7A432D",
"p  c #62443D",
"a  c #6A463A",
"s  c #764336",
"d  c #7C4631",
"f  c #7E4831",
"g  c #7A5734",
"h  c #281B49",
"j  c #301F48",
"k  c #2E2942",
"l  c #372747",
"z  c #37364A",
"x  c #2E2151",
"c  c #342553",
"v  c #362955",
"b  c #372A57",
"n  c #3B2B56",
"m  c #3D2C5A",
"M  c #3A3758",
"N  c #393C64",
"B  c #442C46",
"V  c #4B364A",
"C  c #563745",
"Z  c #412F54",
"A  c #463755",
"S  c #44335B",
"D  c #513C59",
"F  c #613C42",
"G  c #482E64",
"H  c #493665",
"J  c #533C68",
"K  c #5A3E72",
"L  c #3F4054",
"P  c #3D4870",
"I  c #434459",
"U  c #5A4653",
"Y  c #644641",
"T  c #654943",
"R  c #6A4C47",
"E  c #744E4D",
"W  c #684A59",
"Q  c #785456",
"!  c #454969",
"~  c #594565",
"^  c #5A4867",
"/  c #5A446C",
"(  c #50526C",
")  c #464B74",
"_  c #5C4673",
"`  c #4C5479",
"'  c #575879",
"]  c #614B6D",
"[  c #685868",
"{  c #75576A",
"}  c #634A75",
"|  c #634877",
" . c #6A4D7C",
".. c #6D527B",
"X. c #64606B",
"o. c #736C72",
"O. c #802C17",
"+. c #8C341B",
"@. c #8A371E",
"#. c #96371C",
"$. c #99371C",
"%. c #94391E",
"&. c #99391E",
"*. c #843923",
"=. c #863A25",
"-. c #943B22",
";. c #913B24",
":. c #9B3D22",
">. c #A03F21",
",. c #93611D",
"<. c #8A412B",
"1. c #964227",
"2. c #9D4125",
"3. c #94432A",
"4. c #9B442A",
"5. c #9D492D",
"6. c #874738",
"7. c #964936",
"8. c #9D523F",
"9. c #A14326",
"0. c #A3462A",
"q. c #A54A2C",
"w. c #A94D2E",
"e. c #AA502F",
"r. c #A44D33",
"t. c #AA4E31",
"y. c #AC5233",
"u. c #A55338",
"i. c #B05636",
"p. c #B15837",
"a. c #8C6B2D",
"s. c #88504A",
"d. c #995546",
"f. c #92625F",
"g. c #B48E1F",
"h. c #C89C19",
"j. c #DEB518",
"k. c #CDA923",
"l. c #F4CD18",
"z. c #FFD814",
"x. c #FBD518",
"c. c #F7D726",
"v. c #F0D837",
"b. c #A69B5A",
"n. c #DACE51",
"m. c #E6D64A",
"M. c #E2D550",
"N. c #D4D36B",
"B. c #CBD37B",
"V. c #E3DB62",
"C. c #485685",
"Z. c #4D5989",
"A. c #725483",
"S. c #745287",
"D. c #7C588A",
"F. c #57668C",
"G. c #596A95",
"H. c #596D9B",
"J. c #69698C",
"K. c #746F90",
"L. c #68779A",
"P. c #5971A6",
"I. c #667CA7",
"U. c #767AA1",
"Y. c #815E8A",
"T. c #855B93",
"R. c #807D85",
"E. c #8B6298",
"W. c #966EA8",
"Q. c #A370B2",
"!. c #7C848E",
"~. c #798A97",
"^. c #6C83A8",
"/. c #7588A9",
"(. c #7C97A9",
"). c #6F88B5",
"_. c #7797B9",
"`. c #7DA3BC",
"'. c #7DA7C6",
"]. c #7FC0E3",
"[. c #87949A",
"{. c #898DAC",
"}. c #829CAB",
"|. c #849CB2",
" X c #89A2AD",
".X c #86A4B8",
"XX c #B5CB94",
"oX c #99C6BC",
"OX c #BAD5A8",
"+X c #AACFB5",
"@X c #B7D6B7",
"#X c #CDD785",
"$X c #C9D790",
"%X c #C5DBAA",
"&X c #909CC2",
"*X c #85AAC5",
"=X c #91ABC3",
"-X c #8BB2C7",
";X c #8AB9D6",
":X c #97BDD7",
">X c #A7B9DA",
",X c #8DC1DD",
"<X c #95C9D6",
"1X c #97C7DA",
"2X c #A2CFCE",
"3X c #A8D3C9",
"4X c #B7DBC6",
"5X c #A9D7D9",
"6X c #B2DCD9",
"7X c #84C4E6",
"8X c #8AC6E5",
"9X c #8DC9E6",
"0X c #86C6E8",
"qX c #88C7E9",
"wX c #85C8EC",
"eX c #8CCBEC",
"rX c #97CBE5",
"tX c #92CEEC",
"yX c #9ED3E6",
"uX c #95D0EE",
"iX c #9BD3ED",
"pX c #86CBF2",
"aX c #8ECEF1",
"sX c #91CFF0",
"dX c #8FD0F3",
"fX c #95D2F2",
"gX c #9BD6F3",
"hX c #9ED8F5",
"jX c #9DD8F8",
"kX c #A9DAE5",
"lX c #A1D6ED",
"zX c #A4D9EE",
"xX c #B1DEE3",
"cX c #A0D7F1",
"vX c #A3DBF4",
"bX c #A9DEF5",
"nX c #A6DDF8",
"mX c #AADFF9",
"MX c #B1E1EE",
"NX c #AEE1F6",
"BX c #AEE1F8",
"VX c #B3E4F7",
"CX c #B3E5F9",
"ZX c #B8E8FA",
/* pixels */
"BXBXbXBXBXBXVXBXVXVXZXZXCXZXVXVXNXVXVXVXCXZXzXzXNXBXBXrXU.T.T.W.>XBXCXvXiXvXbXnXvXvXvXmXBXBXbXCXbXgXbXvXkX6XvXcXNXNXxXMX6X6XiXuX",
"BXBXBXbXBXBXBXBXVXNXZXZXCXVXVXNXVXVXCXZXCXCXzXvXNXBX:XJ.D.T.W.Q.Q.>XCXvXiXnXvXvXvXvXbXmXBXBXCXmXzXlXvXvX6X4XvXvXNXNX4XxXNXkXiXuX",
"VXbXbXbXBXBXVXVXNXbXVXCXVXZXVXMXzXVXCXCXCXCXiXvXBXrXJ.S.T.T.S.Q.Q.Q.>XgXiXvXvXnXvXvXcXbXmXmXVXVX%X3XcXvX4X%XnXvXzX4Xm.#X6XzXtXuX",
"bXbXvXzXBXBXVXVXbXvXzXMXbXNXzXyXlXbXNXbXNXiXiXlXbXU.| S.T.K G D.Q.Q.W.:XiXvXvXvXbXcXcXcXvXcXzX3Xn.OXlXjX@X#XcXcXyX@Xm.N.5XrXtXuX",
"CXVXzXbXVXZXZXVXBXcXiXiXlXlXiXiXcXcXcXvXcXgXcXmX:X|  .S._ J E._ T.W.E.|.vXCXCXbXNXbXiXrXuXiXiXiX3XlXnXnX%XV.bXiXtXtX+X5XuXtXuXiX",
"CXVXbXVXZXVXZXVXVXcXcXbXbXbXbXcXcXnXmXmXmXbXbXVX{.K  . .m | E.S.K E.T.U.zXCXCXCXBXNXuXiXcXcXcXvXlXnXBXBXV.c.6XgXtXgX5XiXgXuXfXNX",
"VXVXVXVXVXVXVXVXVXcXvXbXbXvXbXbXbXbXmXmXbXbX-XL._ _  .A.G H ..H | T.D.A.K.|.zXBXNXNXiXgXcXcXvXvXcXnXnX%Xc.z.#XcXtXfXgXgXgXgXhXvX",
"VXVXVXbXVXZXZXVXCXlXvXbXbXbXbXbXmXmXBXmXBX|.b c b H | | | m Z H S.S.S.G b Z /.bXNXNXiXgXcXvXvXvXzX6X%Xv.z.z.c.B.3XiXgXgXgXfXgXNX",
"VXVXvXbXVXZXCXZXNXyXzXbXbXbXbXcXvXBXBXNX'.b c | _ Z J }  ._ m  .S.S.G c } _ S /.bXbXrXiX5X4XOX$XV.v.z.z.z.z.x.z.c.M.#XOX@X5XyXzX",
"zXzXiXlXzXzXzXzXiXiXcXvXbXbXvXcXzXvXzX/.v   b ..} c G K _ | _  . .K x Z .. .n n F.1XuXiXlXkXxX5X@XOXM.x.z.z.z.v.#X@X3X5XzXyXuXuX",
"cXiXiXiXiXcXiXiXiXiXbXBXBXBXBXvXlXlXL.k ; , + n v x b H _ _ _ } K m h x m b B s C ` ,XvXnXnXmXnXgXsXyXB.x.z.M.2XfXjXhXvXvXgXtX9X",
"bXbXlXgXbXbXbXnXbXbXBXBXBXVXVXNXzX^.l a 9 > ,   h x x b J ~ ~ ^ G h h h j 3 q u 6.C ' rXBXbXbXbXzXyXgXkXm.c.@XgXhXNXvXvXvXvXyXuX",
"bXbXcXcXvXnXnXnXvXbXNXNXBXCXCXmX^.l a f u 7 > ; j h x c v S A A x h h j 3 e i 0 i 6.C F.cXBXNXmX4XXXiXhX#Xm.zXgXvXvXvXvXvXvXuXuX",
"mXbXvXcXbXbXbXbXbXbXVX>X{.{.|./.A a <.i u i u 5 < @ h h O P ) A   h k 2 d i i u u f 6.C L.|.{.[.n.c.@XjX%XB.jXgXvXvXvXzXNXNXuXsX",
"bXbXcXiXbXbXbXbXcXvXzXF.D ] ] ~ C f f i u i d i 6 : X X O M ` L .   < u d i i i u f f a ~ ] ] ~ R XXhXjX4X$XgXgXgXNXNXhXNXhXtXtX",
"vXcXgXcXvXbXbXbXcXcXrX) b S S S D d i i u f i i 7 C I . . P ` @ . X V 8 q 6.u d u i d C A A S b M -XjXhX5X@XfXsXtXtXtXtXuX9X9XtX",
"nXcXlXvXVXBXBXBXbXiXuXG.v b m m Z F i q i 6.u 7 1 ! ! O O P P.L O + ! U > u i i d 0 a A m b b b ! ,XNXhX6X4XjXuXqXuXuXuXuXtXuXhX",
"bXnXvXbXBXVXBXVXBXiXcX|.b b b b n Z w i i i 7 ; O P ( O + ` ^.M O k ` I o > u u d q V n n b b b G.zXhXNXzX6XNXfX9XgXgXgXfXgXgXvX",
"bXnXvXBXmXVXBXBXVXiXcXiX` c b b n n B w i 8 Y + O F.F.O z H._.I O L L.z . 1 t r s V n b b b b m ;XvXhXNXvXzXvXiXuXgXfXgXgXgXgXvX",
"nXcXvXNXVXBXBXCXmXiXvXrX! @ , B c v b n 8 Y X.+ k H.^.z P G.L.L.z ` ^.! . I W 5 B n v v l C < z *XhXhXhXvXvXvXiXtXgXgXfXgXfXgXhX",
"bXvXgXbXbXbXCXBXcXtXcX_.@ 8 u u 3 @ c c @ I J.+ P P Z.H.Z.N H ^.G.C.) H.+ ( ' @ l c B 3 u i i < G.uXgXhXvXvXcXtXtXuXgXfXfXgXuXgX",
"cXcXiXtXiXiXiXiXrXiXiX` , 9 i f 0 u < , X M ~.z M C.H.P C.C.C.H.P P Z.` + ( ' o @ < s 0 f f f w M ,XgXgXiXhXuXtXtXgXgXgXhXuXuX9X",
"mXbXiXrXcXgXgXgXiXgX,Xm > 0 d u i u 7 0 q Y J.z + C.H.k x Z.P.! O P P.I O ! [ q i 6 u u i u i f 1 _.jXhXnXhXgXuXgXhXgXvXNXhX9XqX",
"bXmXgXiXbXcXbXcXvXbX_.@ 6 i i u i 9 7 7.y.i.s.1 + Z.^.k k C.I.L O P ^.L @ R 8.5.5.0 6 i u i u i 3 G.hXNXvXvXhXiXhXzXNXvXgXhXtXtX",
"bXbXvXiXvXvXvXvXvXvXG.; q i u u u 6 <.5.p.p.r.u.w C.L.z + G._.I O P I.U e i.p.t.5.3.= u u u i u w ( gXvXvXhXhXgXhXNXhXhXNXNXeXeX",
"bXmXlXuXcXcXjXvXvXgX` : i <.u u 9 0 3.i.p.p.7.p.u.Q J.z k G.).! O P o.d.r.u.p.i.r.5.<.> y u i i q A ,XvXvXhXgXiXgXgXNXhXgXhX9XtX",
"vXvXrXtXgXcXgXvXhX,XA 8 i q q q 7 <.r.p.i.i.r.i.p.i.s.A + F.I.( + U d.p.5.y.i.i.y.5.1.6 7 u u i i C *XhXgXgXgXuXuXgXgXgXhXuX8X9X",
"rX9XtXiXgXvXbXvXhX;XA 9 d q q 9 7 3.e.i.i.p.5.i.p.i.y.u l Z.P.` 1 r.y.y.5.u.i.y.i.e.1.0 5 u q u i 3 _.fXgXgXfXuX9X9X9X9X9XqXeXtX",
"gXgXiXvXnXnXnXbXNX'.A w e q q 6 <.5.y.i.y.p.r.i.p.i.y.r.a C.G.[ 7.i.i.y.r.u.i.y.y.y.1.3.6 9 e 9 w V I.gXhXhXhXeX8XtXuXuXtXtXuXgX",
"gXhXgXvXnXnXnXbXiXZ.J D V e 9 9 <.e.y.y.y.y.7.y.i.y.y.y.u.W Z.d.t.i.t.i.r.t.i.t.y.y.5.1.0 6 e < l _ G *XvXhXhXuX9XuXfXfXfXgXgXgX",
"gXgXhXbXbXbXnXbX=X| G n j l < 0 4.e.e.y.y.i.r.y.i.y.y.r.y.8.=.t.t.i.t.i.u.t.t.y.e.y.q.1.=.; l h j S J U.iXjXhXuXtXuXfXfXgXfXgXvX",
"hXhXgXvXnXnXnX:XK.Y.Y. .J b l =.0.e.y.y.e.y.r.y.e.e.y.e.y.y.<.u.w.w.t.i.r.t.t.t.y.y.r.-.;., j S J  .S.T.{.gXhXuX9XfXfXgXgXfXfXjX",
"gXgXiXiXcXzX1XK..._ _ A...] C 3.w.w.t.y.t.y.r.y.y.t.t.t.y.t.;.w.w.y.w.i.q.r.t.e.e.w.q.1.;.8 V ] } } _ S.T.&XfX9X9XfXgXgXsXsXtXiX",
"vXgXuX9X9X9XU.] K A._ J } ~ E 4.t.t.w.t.w.y.t.y.e.w.t.t.t.r.=.t.w.w.y.w.q.q.t.e.w.w.q.;.3.=.V ~ K S  .|  .Y.;X9XtXcXcXgXcXfXrX7X",
"bXvXiX9XgXuXJ.^ H A./ Z ^ ~ F :.w.w.t.w.w.i.t.r.w.t.w.q.y.r.*.w.y.w.w.w.4.q.w.e.w.q.1.%.3.e A ~ D Z ..| K A.;XsXcXvXvXgXgXjXqXqX",
"vXvXiXtXgXgX*X_ ~ S S ^ ^ ~ A 0 w.w.t.w.w.t.r.w.w.w.w.q.t.q.;.w.w.w.w.w.4.q.w.w.q.4.1.1.0 V D ~ / J S J | /.sXiXgXvXjXjXvXvXeXeX",
"vXvXgXtXgXgXgX(.] ^ ^ ~ S S x X 3.q.w.w.q.t.2.q.w.w.q.q.w.t.:.r.w.q.w.w.;.0.r.w.q.2.;.=.< l Z A D ~ ] / J.,XfXfXgXjXvXgXjXjXrXeX",
"vXvXtXeXgXgXgXuXL.D H b h h X o 6 q.q.q.q.q.3.q.q.q.0.q.q.t.4.r.w.q.q.q.4.0.w.q.q.;.;.@.$ @ c n Z J J ' ;XgXsXsXgXgXjXgXgXgX8XpX",
"iXtX8X9XuXgXfXgX;XP G v   o $ : % 4.q.0.q.0.;.q.w.u.d.u.r.q.:.q.r.d.8.q.:.q.q.q.4.%.;.0 : # ; l m ] J _.gXfXsXrXtXtXtXiXgX8X0XqX",
"qX8X9XiXhXhXvXhXuX'.F.` 1 % 4 6 % *.w.0.q.q.:.q.7.K.&XR.0.r.;.:.{ ).{.u.9.0.0.0.2.@.*.6 6 6 % $ ( G.'.iXgXgXgXtX7X8X7X8X8X8XeXsX",
"uXuXuXhXvXvXvXvXhX9XuXuX~.7 6 6 5 = 0.q.0.q.-.0.W H.).U.d.4.-.s.Z.P.).s.2.2.r.q.:.%.- 5 7 q 6 [ ,XgXvXhXhXjXgXtX8XtXtXtXtXtXtXgX",
"uXuXiXhXcXvXvXvXzXtXtXuXrXo.= = 5 & -.0.0.q.-.7.W _ Z.{ f.4.;.{ ] ` ] W 7.9.q.9.;.@.6 5 7 6 a -XgXgXvXjXhXhXgXtXqXtXfXsXsXsXfXgX",
"gXiXgXgXjXNXvXvXvXuXuXuXuX-X8 = 6 & *.q.0.0.:.6.s.:.:.;.{ 7.=.{ 7.3.7.W 7.9.q.:.%.+.= 6 7 5 !.fXfXhXvXgXhXgXvXtXeXsXsXfXfXsXfXgX",
"gXgXaXgXjXjXvXvXgX9XaXgXuXuXo.& 5 & 0 9.0.0.:.=.D s.d.E E :.*.F s.7.s.E 7.>.0.:.@.0 5 7 = a ;XfXfXgXhXhXjXvXgXeX0XaXtXtXsXfXsXgX",
"uXuXtXtXuXuXuXuX9XwXuXuXuXfX}.= 6 4 5 2.0.9.-.:.6._ F.{ 7.:.;.=.~ F.] 7.>.:.0.:.@.- 5 6 & o.iXgXtXeXtXtXtXtXrX0XqXaXsXfXsXsXaXeX",
"hXgXaX0XwXqX9XqX0XaXuXhXhXgX:Xa 5 4 4 -.9.9.;.:.0.F ] ;.9.0.;.:.6.~ E 9.0.:.9.-.@.= 5 & 6 [.vXhXfX0X7XeXqXqX0XwXsXgXgXgXgXfXeX7X",
"hXhXuX0XuXfXuXgXuXuXhXhXhXhXyXQ & 5 % *.9.9.-.:.2.:.:.>.2.t.:.:.:.:.2.>.9.:.9.-.@.= 4 & 9 =XnXhXgX0XeXfXsXsXtXtXfXgXhXgXgXgXqXqX",
"hXhXuXeXdXfXfXfXuXiXhXhXhXvXzX{ & 5 % 0 :.>.;.:.2.:.2.2.:.q.:.:.>.:.9.:.>.:.>.;.* : & 6 a 1XhXhXgXqXsXfXfXsXsXsXgXgXgXgXgXgXeXeX",
"hXhXuXeXfXfXfXfXfXfXlX5XjX5X6Xo.= = & * &.2.;.%.1.&.2.>.:.>.:.:.>.:.>.>.>.:.:.@.* % 5 6 T 1XhXhXfXqXsXfXfXsXtXfXgXgXgXgXgXgXeXeX",
"fXgXeXwXdXuXuXfXfXuXkX4XjXhXBXo.r = = ,.&.&.%.&.2.&.:.&.:.:.-.:.&.&.:.$.:.:.&.#.* % 6 4 a 1XhXhXtX7XeXfXfXsXsXeXfXgXgXgXgXgX7XeX",
"tXqX7X0XfXfXyXgXaXaX2X+XtX9XeXX.,.r % = &.&.;.;.:.:.&.&.-.>.:.:.&.&.-.:.>.:.$.+.* : 5 5 a ;XuX9X7X0XeXfXfXsXeXeXeXtXtXtXeX7X0XqX",
"8X7X7XuXfX5XB.@XiXeXoXXX0X,X-Xb.j.h.r - &.&.&.%.&.&.&.&.-.:.:.$.&.&.-.:.:.:.#.+.* & 5 5 8 .XwX8XqXeXfXgXgXgXfXeX8X7X7X7X7X7XeXfX",
"eXeXeXfXgX5XB.@XzXwX+XB.aXsX-Xg k.g.= - &.&.&.%.>.&.&.&.&.>.:.-.&.&.&.&.:.-.#.+.* % 5 5 = ~.dXaXeXfXgXgXgXfXgXuXqXeXeXeXeXeXsXgX",
"eXeXeXfXfXjX5XiXgXtXXXM.tXfX(.4 r 7 # * &.$.1.#.&.&.&.&.#.9.2.#.&.&.$.&.:.;.#.+.* % & : = [ eXaXaXgXgXgXgXgXgXtXqXeXaXpXeXeXsXfX",
"eXeXeXfXfXhXgXhXgX9Xn.c.3XeXQ % 6 = # * &.&.4.#.&.$.$.#.#.q.2.#.$.$.$.$.:.%.$.+.* % & % & 2 '.aXeXfXgXgXjXgXjXeXqXeXeXeXaXeXfXgX",
"eXpXeXgXhXfXfXjXfXXXx.z.N.[.> % & % % +.$.&.9.+.$.$.$.$.$.q.+.#.$.$.$.#.:.#.$.+.O.& & : & % o.eXaXsXgXfXfXgXfXeX0XeXaXeXeXaXeXfX",
"aXaX9XtX<XyX<X+XB.c.z.z.z.j.,.r r = % r @.<.<.- @.0 @.*.=.=.- 0 *.*.*.0 =.0 *.0 = & : 5 % : 2 (.eXeXeXtXeXeX7X7X0XeXaXaXaXeXeXqX",
"dXuX<XoXXXXXn.v.z.z.z.z.z.z.l.j.g.a.g y a 2 t > 2 2 2 2 2 2 2 2 2 2 2 2 2 2 2 2 2 2 2 > > 2 2 T ~.'.7X7X8X0X7X0XtXfXfXfXfXfX0X7X",
"fXgXtX].aXtXyX+XB.c.z.z.z.k.a.g a a t t t p t p t t p t t t t t 2 p p t p p Y T T p T p t t t p t U (.tXaXeXeXeXfXfXgXjXgXgXqX0X",
"fXfXdX].wXaXpX].`.b.l.z.k.p Y Y p p p Y p p p p p p p p p T Y Y Y Y Y Y p Y Y Y T T p T T T T T T a X..X;XaXaXeXfXfXfXgXfXfXeXeX",
"gXfXdX].aXeXtX~.p a k.l.g p p p T p T T T T T a R R R R R T T T Y Y Y Y Y Y Y Y p p T a p p p R R s E Q |.aXaXaXfXfXfXfXfXfXwXaX",
"fXfXaX].aXdXOXn. X`.b.m.`.(..X(.(.(.(. X}.}.}.`..X*X.X-X-X`.-X-X-X-X-X'.`.*X*X(.(.(.~.~.!.!.o.o.!.[.[. X8XaXeXeXfXgXfXfXjXfXqXeX",
"aXaX].].pX<XN.v.+XpX+XB.dXdXuX].wXpXdXdXfXpXpXeXdXdXfXdXpXeXeXeXpXeXeX7XpXpXfXdXdXeXeXwXtXeXeXeX].7X7XeXaXaXeXwXwXeXeXeXeXqXqXqX",
"].].].dXfXdX5XOXdX].oXXX].].].wXpXfXfXfXfXfXwXaXfXfXfXfXaX0X].7X7X0X].7XaXfXfXfXfXaX0X].7XeXwX].7XeXfXfXfXfXsXeX].].7X7X7X0XeXsX"
};
