/* XPM */
static char *floor_resized[] = {
/* columns rows colors chars-per-pixel */
"64 64 32 1 ",
"  c #7FBFE2",
". c #7FC1E4",
"X c #84C4E5",
"o c #89C6E6",
"O c #8DC9E6",
"+ c #86C6E9",
"@ c #88C7E9",
"# c #87C8EB",
"$ c #8CCBEC",
"% c #91CBE7",
"& c #92CEEB",
"* c #98CFEA",
"= c #95D1EE",
"- c #9BD3ED",
"; c #8ECEF0",
": c #91CFF1",
"> c #95D2F2",
", c #9BD6F2",
"< c #9ED8F5",
"1 c #A1D7EF",
"2 c #A3D8EF",
"3 c #A0D7F1",
"4 c #A3DBF5",
"5 c #A9DEF6",
"6 c #A7DDF8",
"7 c #AADFF8",
"8 c #AEE1F7",
"9 c #AEE1F8",
"0 c #B3E4F7",
"q c #B2E4F8",
"w c #B6E8FA",
"e c #B8E9FB",
/* pixels */
"9q85899990eeee008000ww24888528000092,48<4477q7993444444488554=><",
"88058999900e000080w00w2385555500q9021844435qq7993344444485558-=<",
"5055589000000000200ww02365555500990--84443577797-<44444444444=,<",
"9554580095280002158855-155554155882=-4444334545-%,44444-4444=O=,",
"002550e0851-11**113331328q884-*=--*-499853***-=*,34695<*O==;%=,4",
"ww080wee08*3258234567628q99q8=4482<,9q9903*3,34,369998<%=,,,--44",
"0w0800000816555555577558q9098-444<<8089995*33443455955,%,,<,,,44",
"000800w0081555555597755898898-14<888999975-334444655553%<,,,,<84",
"00028000021465553585555588505*34<48-899081*44444,88888-O,,,,,,<8",
"253225552-125541155554332254**3488<,,121-==-444---=-==%&=,<,-===",
"2---*-*11*5888723355551**-***,58998=*=-=*=-44654=$&=%%*-444<-=O=",
"555-356453888900357q891*44443457999-=<4<4-485559=>,<<<-<44448==-",
"55535555550909w935777q1,454444509992-44441458854=<<<<<,<84<<4===",
"5553365562899909367q791,44443508998--44444558588*-<<<<,<<4488==,",
"5551365653589905*55997--44444469998*,4444,488554*-<<<<,-<848<O=>",
"331,1557231123-**1535-*,4444,,-12-*=-444-,-1---%%=<<<,==%===%$=,",
"5433599993*-,-,*,44443,498984%=-,>=><88452*=->>=><4844-O&=>&$=<4",
"55457qqq92-44444445544479q995=,44444986885=44444<44<44,O-,><,,44",
"5545909995,4444434665445q9855=,444<4694884>44444<44444,&,,,,>,44",
"5444799904-444443554444095555-34444<698854=44444<444<8,%>,><,,44",
"443359995-*33444,44444455455-%,<4<,-28444*&1444-&,444<=%=,>,>=,4",
"443,**1***,3443---44443**==*%=-<44,,==&&%O%&==&%&=-,<=$&-,,,>=O$",
"575**33,,*555554,46595-%--,--,58848=&=,=====,,,>=,842<=-44444$$&",
"555-344443555555455555--4<<<,<44488==,,4,,-,,<,,<4444<<<44444&$>",
"5571,44344455555155555--<4,<,445488-=<,,,,,<,,,,,484<<,444444&&>",
"555*,3344<565555-44555--<,<,,<44685==,<,,,=,,,,,44<4<<-,<4<44O&>",
"441%-<344,-4444-*-4441%=,,,,---484-O&,,,==&,,,,>=-,,,,==,,,,&X$>",
"*%%*,4443,*%%*%%**===%=,4444-=%=$%%%-,444==144<,=$=>,-;$oOOOO$>,",
",,,,46665,$,,,,,=-<<,,,464664%-,,,,>4<664,444444&&,<<<>O&=;>;=<<",
"<<33565664*<<4<<,<<<<<<466444=,<<<<,486444,46644=-<<<<>O=>>>,,<<",
"<,,,466663=<34<<-,<<<<<464444=,<<,,<44444,,444<4=,<<4,=%=>>,>,<<",
"<<<,46666-*<4<<<=<<<<<,46464<%,,<<<,46448,,6<684$><,,4=$=>,,>>,4",
"<<-==1,<-%=,<,<=>><<<-==--,,%O=,,,>==-1<-&&--12&#&,,,=#O=,,>>&&=",
"44-=%&&&%$14444--<444<-$&**O%=<<444;O%&%%&&%%&%O&=,,>>O=22<<>&.O",
"444&&,<,,=<44444<44484=%,,,,=<44666=&>,,,=&=>>>==,,,,>>,<<<<<O;>",
"444&=,,,,,444444<<44<4==,,,,-,44<4<>&,,<,>=,>>>>>,,,,>=,<<<<<O;=",
"444&=,,,,,444444<28<<8==,,,,,<44444=&,<,>>>>>>>>>,,,>>=,<<<<<;O>",
"44<O&,,<,=,4444,*<44<8*&>,,,==44444O&,>>>=&>>>>>=>>,>>==<<<<>O;;",
"&=OO&>,,=&&&&=&OO%==-*$&:,,>==%===OO&>->=&&O&&;%&&=>,=&&#&&&.OO>",
"OOo&,4444=o%%%%%OO%&=%%,<8<<=OO$%$O%-4444=.O&&&O&><<<,=.ooOO##>,",
">==,4444<=O=>>>;&-,<,>-<4444<#%>>>>=<4<<<>o==>=&=<<<<<=X&;==&=,<",
">>>-44448,&==>>=>><,>>>444<<<O=>>>=><44<<,O===>>,4<<<<=X;>=;;>,<",
"><>><4444,%>,>>>;>,>>,,<4<444O=>>>>><<<<4>o>>>>>,4<<<<=$=&;>;>,<",
">->=,<<4<%$>>=>=&>>->>>,4<44=o&>>>>=,<<4<&o;=>,,>,<<<<$#;==;;;><",
",>;&#OO&++&>>->&&&>>,>;O%%$$@$>,,,=&$OOOO.O;>,,;$$OOO#oO&>>>>;oo",
"4<<#o;&$$$-<<<<-;,<<<,&+$$%$$>34<4<;o;;&$&;<444,#+$$$##;,,,<,###",
"<<<O;>>>>><<<<<<>,<<<<;$>>>**<<<4<<&O>>>>=><44<,$;>>>&;>,,,<,$$;",
",<<$;>>>>>,<<<<<=<<<<<&&>>*>,,<<<<<;;>>>>>,4<<<<O;::>>;>,,,<,O;;",
",<<#;>>>>>,44<<4&,<<<<&$>=,,>,<<<<3&&,>>:&,,<<43$$>>;;=-,<,,<$$;",
",,=.$;&>;&>,,,,&o>,,,>$#=>>=;&,,,<,X$::::::,,,<:.$;;>;$;,<,-;.$;",
"O..o;>>>>&Oooo#.#&>>>$#$=>,=&@ooo@X@$>>>=&+o+o+.$$>>>;$OooXXX#$;",
"##o;><,,4>.;$$$$&>>,,>*>,<,,>X#$$$#$,<,,,:X+$$;#$>,<,,&o+$$$+$><",
"&;$;,,<<<=$;;>;&=,,,,<>,<,,,>#;:::::,,<<,=o:;;;;;<,,><=$$$$$$;<-",
"#;;&>,,<<=+;;=>;>>,,,<>,,,<,,#$;::::,<<,,=o:;;;;;,,,,<=+;;$$;;,,",
";$;;>,,,,=+;;;;;:,,,,,*>,<><,X$>::::<4,,,&+$;;;;>,,,,<>+$;$$;;>,",
"$$#$;,>>=X+;$;;;$>>,,>+$>,,>OX$;:::&:,,,=+X$;;;;$;>>>:..$$;;$;:>",
";>;#...;XX$;:;;;#Xo$@X+@$##+##;:>>:&+oo+XX+;:>:;#XX+XXX#;;>>;;.#",
">>;;.;;.$+:,<,,,+#&:$$$;:::;#;,,<34$+#$##+;,>,<>#+$$$$#;,,><>#.;",
"><>.;;;;;$>,<>>>+;>;::;:::::::,,,,<$#;:;;;>,,,,>##;;$;;;>><>,#$:",
">><.;;;;;;>>>>>>;;;;:;;:::::::,>,,,##;;;;;>>>>><#$;;;$;>>>>>,#;,",
"<>>..>;;;>><>>><#;;;;;;;:;;;;:,,,<,##:;;;;;>><<>X$$;;$#:,>,>>#:>",
">>;..;;;;.;>>>>;.#;;;;+#::;;$#:>>>; #:;$;#$:>>>;X+$;;;$$;>:>;.#:",
";...;;;>;.......#;:>>;#;>>::;#.++.X#;:::;;#.##+.#;;>::#+.++X+#;>",
";..;>>>><;..;;;.;>>>>>;:>>>>: ###;##:,>>>; #;####>>>>>;.###;##,<"
};
