/* XPM */
static char *wall_resized[] = {
/* columns rows colors chars-per-pixel */
"64 64 126 2 ",
"   c #1C3B6D",
".  c #173F74",
"X  c #1B3F71",
"o  c #1D4374",
"O  c #1D4679",
"+  c #1E4A7C",
"@  c #204275",
"#  c #21467A",
"$  c #234B7D",
"%  c #284F7A",
"&  c #1F4C80",
"*  c #234E81",
"=  c #294F82",
"-  c #235285",
";  c #295384",
":  c #25568A",
">  c #29568A",
",  c #265A8D",
"<  c #2A5B8D",
"1  c #275C92",
"2  c #2A5E92",
"3  c #315E93",
"4  c #2B6295",
"5  c #2C659A",
"6  c #2D699D",
"7  c #316495",
"8  c #316897",
"9  c #31659A",
"0  c #326B9D",
"q  c #396E9A",
"w  c #36709D",
"e  c #3B719E",
"r  c #2E6DA1",
"t  c #326DA2",
"y  c #396EA2",
"u  c #2F71A5",
"i  c #3372A5",
"p  c #3A73A5",
"a  c #3475A9",
"s  c #3976A9",
"d  c #367AAD",
"f  c #3A7BAD",
"g  c #377EB1",
"h  c #3A7EB1",
"j  c #427EA6",
"k  c #427DAA",
"l  c #417FB1",
"z  c #3E81AF",
"x  c #3C83B4",
"c  c #3D86B8",
"v  c #3E8ABB",
"b  c #4482AD",
"n  c #4885AF",
"m  c #4D88AF",
"M  c #4285B5",
"N  c #4689B7",
"B  c #4A8AB5",
"V  c #4187B9",
"C  c #438CBC",
"Z  c #4A8DBB",
"A  c #4491BF",
"S  c #4C93BE",
"D  c #5194BD",
"F  c #448FC0",
"G  c #4593C4",
"H  c #4A94C4",
"J  c #4C98C7",
"K  c #4697C8",
"L  c #4997C8",
"P  c #4799CA",
"I  c #4B9BCC",
"U  c #5197C1",
"Y  c #539BC5",
"T  c #599DC4",
"R  c #519DCB",
"E  c #4D9FD0",
"W  c #509FD0",
"Q  c #4DA0CF",
"!  c #5BA0C6",
"~  c #54A1CD",
"^  c #59A3CC",
"/  c #5CAACE",
"(  c #4EA2D2",
")  c #4EA7D8",
"_  c #4EA9DA",
"`  c #52A5D4",
"'  c #59A6D3",
"]  c #54A8D7",
"[  c #5BABD5",
"{  c #52A7D8",
"}  c #55ABDA",
"|  c #5AAEDB",
" . c #56B1DE",
".. c #5BB1DE",
"X. c #61A9CD",
"o. c #62AED3",
"O. c #68AFD4",
"+. c #65B1D5",
"@. c #69B2D2",
"#. c #63B4DB",
"$. c #67B9DC",
"%. c #69B9DC",
"&. c #57AFE0",
"*. c #56B3E2",
"=. c #5CB5E3",
"-. c #5EB9E6",
";. c #5EBCE8",
":. c #61B6E1",
">. c #63BAE5",
",. c #6ABEE3",
"<. c #63BEE9",
"1. c #68BFE9",
"2. c #6EC0DB",
"3. c #6CC2E6",
"4. c #65C2EC",
"5. c #69C3EC",
"6. c #6FC8ED",
"7. c #73C4E5",
"8. c #71C7EB",
"9. c #72CAEC",
"0. c #67C6F0",
"q. c #69C6F0",
"w. c #6DCBF4",
"e. c #70D1F5",
"r. c #78D5F1",
"t. c #73D3F8",
/* pixels */
"| >.[ ; t s p p s s h V F U I W ` ] } | } ` Z 3 V F F F G G x , r I ` } } I K ` Q Q H v x C x x u d : x ( ) } M G ` ] | &.x C ] ",
"<.<.o.; y t t s s h l F U L W W } } &.&.` ] U 2 h c C F G C x : i I ` } I ` I ` Q P v v A A c x a d - v ( ) &.x L ` | | E f G | ",
"5.4.R - y y p p h l V U U W { } | =.=.>.>.1.Z 2 g x x c c c s - i R ` ` ` | I ` Q P v K S v x x a d - x ) ) } k G } ..} ..z H :.",
"..| C # 9 p y p s l h V H I W W } } | ..=.` 0 1 a a a g g d 6 ; i I ( ` } ` F ( Q Q Q P A x x d a i + i v G F 2 d H ` | } t G | ",
"i 0 < = > < > - - , 2 2 3 r 9 r 0 i t i i 5 , > 4 1 4 5 5 4 < ; < u a s d s u d d d u u u r 5 6 6 , $ > 2 4 2 ; 4 0 p M z 0 f s ",
"....} #.:.#.%.q O 4 V J I L H H J R ~ ~ J ' #.+.%.f : a x v A C C A A A C V c x x x x u r 5 - 1 x A I ' [ [ ..:.$.>.,.,.7.7.7.@.",
"..=.-.=.=.=.w.b - h H I I L F F C G H K I ( ` ` 3.@.6 G P P ) ) _ ] ) ( Q I I G v x x a u 6 5 6 a i M N Z J R W ` ] } } } | ..%.",
"....=.=.=.>.| 7 , I } E E W L H C G G G P Q ` ` | @.w K ( ( Q ) ) ) Q I K K K v x x a u r 6 5 r 0 0 y s h V F L I W ` ` ` ] ` o.",
"} | | =.=...] w < ` =.} } ] ` E I C c G I Q ` ` } +.u P Q Q Q ) ( ( ( G P P v v c x u u r 5 5 6 a 5 1 r p h V F H H L E W E E ' ",
"] } | | | ] } i 2 ] =.=.&.| ] { ` ( G F I I ` ` ] o.u K P Q Q Q P P P G v v v v x x u u r 5 5 r t r 3 5 r i s h V C F K H H H W ",
"` ` ` ` ` ` { i 2 } >.-.=.&.&.} ] ` ` G C I I W ] ! u v A A G G G A A G x d x x x u u u 6 5 4 5 a t r 5 2 5 r y s l h h c x V F ",
"I I I I I I ( w , L =.=.=.&.} ] ` ( Q J x L I R J c 1 x x x x z x x c c d 6 u a u u r 6 4 4 < 4 t t t 2 2 2 2 9 r r t y i s i t ",
"x x C v v v g : O 4 s x h d d a a i i u 6 a a a u 4 - 1 4 4 5 4 5 5 6 r 6 4 6 6 5 5 2 2 2 : - - 3 3 3 1 > < 3 7 3 2 2 , : - & & ",
"r t r 1 : 5 a i 0 i f s s s a a a i 6 + 4 z ~ ! S A v S Y Y J J v d , $ 4 u a z x a f z f w w w a t t y i 0 p 0 9 9 9 5 9 0 9 0 ",
"( E E 0 : x G P I ] ` ( ( ) ` { ) ] G 8 x -.t.t.t.4.0.0.4.4.<.=.;.} 6 u Q ( ] [ _ [ ..] ~ Q Q P G F V V v v x g g g g x x x x F ",
"I K P s 4 x v A K P K K K K I I I Q G 6 x ..w.w.e.e.0.0.4.<.#.} ] ] w x K Q ~ ( ( ] ~ Q Q P H A F c g g d a u a a i a d d a a a ",
"K K K s < x c c v v G G G G K K K K G 6 J 5.w.w.w.w.5.4.1.>...] Q Q 6 z G L L I I I I I L G F V h g d a u u u u u u a a u z u u ",
"K K P s , x x x x x c c v v v v A A v < a ..w.e.w.w.5.<.>...] ( Q P 4 6 p f h x x x s d g x x x g d a u u u a a a a u i z u r u ",
"g g d 1 + 6 u a a d s s d d x x x d 6 + - 6 z C H I J J G C c x d a $ O O O $ + O + + + $ - - < 7 5 2 r 4 4 < , : - - : : - - - ",
"t t 0 q e i d d y s h l x x N n i 4 O $ e k b n M y * - < 5 0 4 1 , ; 3 q q q q q q q q q q q y q 5 2 - o O : 0 z N V C C B C V ",
"| &.>.>.4.4.3.>.W W 8.8.8.8.8.9.8.7.e 0 >.1.:.:.>.1.y 2 a h V V z u z J H J R R I ~ ~ Q W W ` W L L A x + , h W ' ` } =... .-.-.",
"R ' ' ` ] } } ..1.&.&.&.......&.| >.B 6 A [ ..| &.w.l y i t y a 6 w N N V N C F H G H G G G F F c x x x - 6 C I L G G ( [  . ...",
"J R W ` ` ] } } 1...&.&.&.&.&.} } ..M s I L } | >.1.l t a t r 2 0 p f f M x x V C A C A G F F v c x g d * 6 C Y L I I L ( ] ] ` ",
"F F H I E I W ` :.W W } W W { } ` | k d } } ( } :.=.l i d i r r 0 0 0 p f d s x M V V V v h c h x g d u * 6 C G H G J I I ` I ` ",
"l V F H H J L I ' W W W W W W W ` ` f d ] ] ` ] ] I l a d a r 5 5 9 r 5 y a s f h h h g h d u u d a a r * y l F Z F H H H I I U ",
"s l l V V F F H I U L L L J L L L I p f R ( W { F L d i x u 5 r 5 5 2 2 2 r r r s s s s s i r u u u r r > r h V C N F H H H H G ",
"y y p s l l V Z V V F F F F F F G G 0 i C G G A d L y r a 6 5 u r 5 5 2 1 2 2 2 9 5 5 5 r r 1 1 1 r 2 3 * 2 d x V V V V F F F L ",
"3 9 3 3 3 9 9 9 3 r 3 r t i t t 0 6 , 5 i r u 6 t i , < 6 4 < 4 5 6 5 5 2 2 2 3 1 , 1 1 : 1 1 1 : 1 1 1 * , r s d h h h f s F F ",
"t t y y p p k n Z D U U T T T 3 + - 0 t d C J ` [ | ..#.../ [ ~ k * # # - * > > = - > , > > * * : : 1 - # # - > > > 2 3 3 3 3 5 ",
"L U W ' [ [ o.| | ' ' W R W | T $ i x C P I  .=.-.4.4.4.0.6.e.0.9.l # 2 t d V h V Z F H I F 3 2 F I I H 9 * 0 s l V N F N F Z V ",
"f h C F H H R R R R R R R L I T > a C L I P ] }  .-.-.-.*.-.4.4.q.[ 2 i f h c C V H H F K L l 9 F H U E Z 3 V W } &.>.<.<.<.<.<.",
"3 s l V Z G H Y J J Y J H U H T < d A K I I ( ) {  .} ( _ -.-.;.;...9 i s g h h V V F H F F l r l F H H V 5 C J W } &.>.=.-.=.>.",
"9 r t s x M V Z F F H H F V l H 2 d C G K P P ( ( ( G ( }  . .) ( ` 0 y i a d g h c c F F F a 3 h c F F l 3 h F P E W &.&.&.} W ",
"3 2 2 r s s f d l h h h l f f F , d V C C G K P v c P ( ( ) ) Q ] I 5 6 r r r s a d h h h h t 1 d g h h s , a h F G L P E E W W ",
"2 1 , 1 5 t 6 t t t t t t t i l - s c c C G G v u c G P I Q Q Q ( G 1 5 1 1 5 5 u u u u a a 5 - r t u a 3 * 3 r u g c F V F F F ",
"r 2 2 1 1 t 5 4 3 2 5 2 3 t a 3 + 5 s d g d s u 6 u x c v x c a s g - < 1 1 1 1 2 2 2 5 r 2 - * : : 1 : = * = , 2 r t t i i y l ",
"d - > - - : < 4 1 1 1 2 2 2 - # # - < 2 1 4 4 8 5 < - - , 1 1 < , , * $ * * - : : & : - * * # # * * = > = = = = > > , : 3 5 9 9 ",
"V - 5 t y i 0 ;   * t a s l F L d d N H ~ #.$.3.6.2.2 , x d C G A C G M r t s s a 5 5 r t h N Z Y R O.O.R o.o.O.O.O.m > g L E W ",
"N , d h h c M l # r s t i f V R C C R } ..=.-.4.4.r.z 8 v G K K L G G G d x x g d a a a s h x F H R R R O.W R R I R O.3 h G E W ",
"M : a g h g d V 2 r a t t t y f d Z I ' ] ....-.<.9.b u I I I I G G G G x N x g d a r r r s g h l F H H W R H H F H R 5 F K L I ",
"M : u d d d d d < 4 s r 5 5 t y a N H W W W } =.=.8.b s ( ( ( ( K K L G v c x x g a r r r r u g x V C C G R R A N F U 3 x F K K ",
"z - r u u i u a > 2 s r 5 5 r y t h F H H H W | ..3.b x  .} { { ` I I L F x C h g d a i r r u a d x M V N N C C V Z Z 1 h c F F ",
"6 O 4 5 6 6 6 r = > t i i t 3 r t y h g V H W ' ] -.z x  ._ ( } ` ` I I K x v x h f a u r r r u s s h g x x x V V Z B * r g c c ",
"O o + - : - , - X > t t r 9 r 3 9 9 r 3 h H L L I [ b d I ( ( *.} } ( I P c c c h g d a r 5 r r t i s d s d d x s H k * 1 r u r ",
"f B S T ! e o     % 9 0 5 9 9 5 3 3 5 2 y l V F K Q 6 6 c c v _ ( I P G F c x x g s s i 5 4 1 5 5 5 r r t i a i z z % # # # * 2 ",
"M H I Y ~ ] % o $ - : < 2 2 2 : - * * * - 1 9 t u 6 - - 5 1 6 5 5 5 4 4 5 4 1 1 1 1 1 1 , : : - : 2 2 4 5 5 8 0 5 > ; ; # O > V ",
"d C G H A Q e + 5 6 v G H L I I x 0 $ @ 5 c K L E P P P P K K x u d c c x x g d a r 6 r r 5 , & 5 N H I ~ ' ' [ [ | ..+.^ 3 y C ",
"d N A A H S z + : s K K P I E ` } } d : G ) ) } _ _ _ _ _ _ P c G ( ) ) E P K G v v d u r 5 4 1 f N L R ` ] ] ] ] ' ] ( #.H d G ",
"r x c C C A M $ 4 x v K P P Q Q ( } J < K Q _ _ _ _ _ ) K P v v _ _ _ _ ) ( P P G v u u r 5 4 5 M H H J Q ` ` ` ` ` Q I ` U d P ",
"5 s x c C A x - 5 a c v K K Q Q ( Q J 6 A P P ( ( ( ( ( G x d G  .*. ._ ) _ ( v c g r u u r 4 r C A G J J Q Q Q Q Q I J Q S x ..",
"5 s g x x x d - 5 u d c v v K P K P J 6 v v K K P P P P P P u x *.*.*. ._ ) v g x x g u u r 4 t M M V G G J P P J J K G P N a ( ",
"4 i g g d s 0 O 4 u u r d c v v G K A : x x x x c x v v v v x 5 v ( _ _ ) c x G x x g u r 5 4 5 s d h x x v A A x c v c c 5 4 x ",
"+ < 7 5 5 < $ o $ < 3 < < 8 w u 0 8 -   - 6 0 i r 1 8 6 5 4 : + + , 6 6 5 < 4 0 1 4 5 4 1 : - $ , 4 4 6 8 6 8 0 4 4 6 6 4 $ + < ",
"M J ~ ^ ^ [ L R [ $.2.>.$.$.2.%.+.e   e X.+.+.+... .+.+.~ a : o , z s i p p p p a d z z Z N x Z Y ~ / / o.[ +.+./ S 6 % s G H G ",
"G J I C I ....=.-.<.4.<.;.=.*. .1.o.- I 4.<.<.;.;.;.;... .( a + f C z d s y i s f M M V Y Y Y ' | ..-.4.<.4.4.4.;.4.J i Q P (  .",
"x C V c I ` ] } } =.=.*.=. . . .} ^ > I :.-.-.=. . . . .] Q z , x V f f a t 0 y p f n M Z A H R ' ( ]  .-.>.-...-. .J a Q Q v G ",
"g x d x K P Q ( } } { } } { { ` ] S , v ~  .*.*.} { } { ( G d 4 C x h s a r y y p s s f M N C G Q Q A Q  . . . . . .v z P Q v A ",
"s d u d x v A Q I I I E E E E I Q N : G ( I K P P Q ( ( I v v 6 C g h d a t i i p y y s s h x N A A Q v A ( ]  ._  .c 8 A P A Q ",
"r r 5 r d x x v F G G G G G F F G z , G K v K I ( ( I I F v v 5 C x g g a s p p 0 0 0 0 i s f x z c A Q A A Q ( Q ( z , v v A P ",
"5 5 5 5 5 u u d g x x c c c c c c 2 O u x G G K K G K C v v x : d F c x h g s a i i 6 w t y i i u u c v v K v K Q v 8 + z z x x ",
": : - - - - - , 1 1 5 r r r u 6 4 - % - : 4 4 5 5 6 0 4 0 i 5 O $ 4 6 5 t 0 5 5 4 4 4 2 < < < < < , < < 4 4 8 8 8 w < % + , < 8 ",
"a u r u 5 + + 6 a a x x c v v C J ( [ $.B o - 5 a f x c C Z z S Y Z Z C V l f 9 $ o $ : < : 8 8 < < 4 < o o 8 z C ! @.[ P / +.@.",
"u u u 5 6 - - u u u d x v G K P P ( )  ./ + u v C G L I ` } -.3.=.-.>.-.>.} ` G 8 $ w c c v A v v v v c 3 $ M A A ~ ]  .=./ /  .",
"d a u 5 1 : - r r u a x v F G K Q Q ) } ! $ s c x V G I ` ` } :.| =.:.=...I ` ` i - w v A z A A A v v c 4 : z M J ~ / ] / ..( v "
};
